<svg width="188" height="53" viewBox="0 0 188 53" fill="none" xmlns="http://www.w3.org/2000/svg">
<path d="M186.845 46.4654C186.845 49.2427 184.453 51.4924 181.494 51.4924H6.4013C3.44422 51.4924 1.04395 49.2427 1.04395 46.4654V6.37659C1.04395 3.60058 3.44422 1.34302 6.4013 1.34302H181.493C184.453 1.34302 186.843 3.60058 186.843 6.37659L186.845 46.4654Z" fill="black"/>
<path d="M180.93 1.4038C184.152 1.4038 186.773 3.85813 186.773 6.87435V45.9613C186.773 48.9775 184.152 51.4319 180.93 51.4319H6.95883C3.73689 51.4319 1.11515 48.9775 1.11515 45.9613V6.87435C1.11515 3.85813 3.73689 1.4038 6.95883 1.4038H180.93ZM180.93 0.35985H6.95883C3.13321 0.35985 0 3.293 0 6.87435V45.9613C0 49.5427 3.13321 52.4758 6.95883 52.4758H180.93C184.755 52.4758 187.888 49.5427 187.888 45.9613V6.87435C187.888 3.293 184.755 0.35985 180.93 0.35985Z" fill="black"/>
<path d="M41.931 26.1364C41.8907 21.9372 45.6039 19.8942 45.7737 19.7991C43.6707 16.9288 40.4112 16.5366 39.2658 16.5054C36.5282 16.2357 33.8727 18.0389 32.4781 18.0389C31.0558 18.0389 28.9083 16.5314 26.5938 16.5757C23.6154 16.6187 20.8291 18.233 19.3009 20.7398C16.1472 25.8511 18.4992 33.3623 21.5208 37.4938C23.0322 39.5172 24.7984 41.7764 27.1101 41.6969C29.3717 41.6096 30.2165 40.3471 32.9458 40.3471C35.65 40.3471 36.4433 41.6969 38.8009 41.6461C41.2282 41.6096 42.7563 39.6136 44.2149 37.5719C45.9616 35.2528 46.663 32.9688 46.6909 32.8515C46.6338 32.8333 41.9769 31.1695 41.931 26.1364Z" fill="white"/>
<path d="M37.4774 13.7875C38.6938 12.3634 39.526 10.426 39.295 8.45996C37.5344 8.53292 35.3327 9.6 34.0648 10.9928C32.943 12.2201 31.9409 14.2318 32.1998 16.1236C34.1775 16.2617 36.2081 15.1894 37.4774 13.7875Z" fill="white"/>
<path d="M74.6614 41.4059H71.5007L69.7693 36.3128H63.7513L62.1021 41.4059H59.0249L64.9872 24.0669H68.6698L74.6614 41.4059ZM69.2474 34.1761L67.6817 29.6485C67.5161 29.186 67.2057 28.0968 66.7478 26.3821H66.6921C66.5098 27.1196 66.2162 28.2088 65.8125 29.6485L64.2746 34.1761H69.2474Z" fill="white"/>
<path d="M89.9946 35.0012C89.9946 37.1275 89.3808 38.8083 88.1533 40.0421C87.0538 41.1405 85.6885 41.689 84.0587 41.689C82.2995 41.689 81.0358 41.0975 80.2662 39.9144H80.2105V46.5006H77.2432V33.0195C77.2432 31.6827 77.2057 30.3108 77.1333 28.9036H79.7429L79.9085 30.8854H79.9642C80.9537 29.3922 82.4554 28.647 84.4707 28.647C86.0462 28.647 87.3614 29.2294 88.4136 30.3955C89.4685 31.5629 89.9946 33.0977 89.9946 35.0012ZM86.9717 35.1028C86.9717 33.8859 86.6794 32.8827 86.0921 32.0931C85.4505 31.2697 84.589 30.858 83.509 30.858C82.7769 30.858 82.1116 31.0873 81.5174 31.5394C80.9217 31.9954 80.532 32.5909 80.3497 33.3283C80.2578 33.6723 80.2119 33.9537 80.2119 34.1752V36.2598C80.2119 37.1692 80.5097 37.9366 81.1054 38.5633C81.7011 39.19 82.4749 39.5027 83.4269 39.5027C84.5445 39.5027 85.4143 39.0988 86.0364 38.2936C86.6599 37.4871 86.9717 36.424 86.9717 35.1028Z" fill="white"/>
<path d="M105.356 35.0012C105.356 37.1275 104.742 38.8083 103.513 40.0421C102.415 41.1405 101.049 41.689 99.4196 41.689C97.6604 41.689 96.3967 41.0975 95.6285 39.9144H95.5728V46.5006H92.6056V33.0195C92.6056 31.6827 92.568 30.3108 92.4956 28.9036H95.1052L95.2708 30.8854H95.3265C96.3146 29.3922 97.8163 28.647 99.833 28.647C101.407 28.647 102.722 29.2294 103.777 30.3955C104.828 31.5629 105.356 33.0977 105.356 35.0012ZM102.333 35.1028C102.333 33.8859 102.039 32.8827 101.452 32.0931C100.81 31.2697 99.9513 30.858 98.8699 30.858C98.1364 30.858 97.4726 31.0873 96.8769 31.5394C96.2812 31.9954 95.8929 32.5909 95.7106 33.3283C95.6201 33.6723 95.5728 33.9537 95.5728 34.1752V36.2598C95.5728 37.1692 95.8706 37.9366 96.4635 38.5633C97.0592 39.1887 97.833 39.5027 98.7878 39.5027C99.9054 39.5027 100.775 39.0988 101.397 38.2936C102.021 37.4871 102.333 36.424 102.333 35.1028Z" fill="white"/>
<path d="M122.53 36.5441C122.53 38.019 121.983 39.219 120.885 40.1453C119.678 41.1577 117.998 41.6632 115.84 41.6632C113.847 41.6632 112.249 41.3036 111.04 40.5831L111.727 38.2678C113.03 39.0053 114.459 39.3753 116.017 39.3753C117.134 39.3753 118.004 39.1382 118.629 38.6665C119.251 38.1949 119.561 37.5617 119.561 36.7721C119.561 36.0686 119.305 35.4757 118.792 34.995C118.281 34.5142 117.428 34.0673 116.236 33.6543C112.994 32.5221 111.374 30.8635 111.374 28.6824C111.374 27.257 111.941 26.0883 113.078 25.1789C114.211 24.2682 115.723 23.8135 117.613 23.8135C119.298 23.8135 120.698 24.0884 121.816 24.6369L121.074 26.9014C120.03 26.3698 118.85 26.104 117.529 26.104C116.486 26.104 115.67 26.345 115.085 26.8245C114.591 27.2531 114.344 27.7756 114.344 28.3945C114.344 29.0798 114.626 29.6466 115.194 30.0922C115.688 30.5039 116.586 30.9495 117.888 31.4302C119.482 32.0309 120.652 32.7331 121.405 33.5383C122.156 34.3409 122.53 35.3454 122.53 36.5441Z" fill="white"/>
<path d="M132.341 30.9884H129.07V37.0587C129.07 38.6026 129.646 39.3739 130.801 39.3739C131.331 39.3739 131.771 39.3309 132.119 39.2449L132.201 41.3543C131.617 41.5589 130.847 41.6618 129.894 41.6618C128.722 41.6618 127.806 41.327 127.145 40.6586C126.487 39.9889 126.155 38.8658 126.155 37.288V30.9858H124.207V28.9012H126.155V26.612L129.07 25.7886V28.9012H132.341V30.9884Z" fill="white"/>
<path d="M147.097 35.0522C147.097 36.974 146.51 38.5518 145.338 39.7856C144.109 41.056 142.478 41.6892 140.445 41.6892C138.485 41.6892 136.925 41.0807 135.761 39.8638C134.598 38.6469 134.016 37.1108 134.016 35.2593C134.016 33.3219 134.615 31.735 135.816 30.5012C137.014 29.266 138.631 28.6484 140.665 28.6484C142.624 28.6484 144.201 29.2569 145.391 30.4751C146.529 31.6568 147.097 33.1825 147.097 35.0522ZM144.019 35.1421C144.019 33.989 143.756 33.0001 143.223 32.1754C142.601 31.1774 141.711 30.6797 140.559 30.6797C139.366 30.6797 138.46 31.1787 137.838 32.1754C137.305 33.0014 137.042 34.006 137.042 35.1942C137.042 36.3473 137.305 37.3362 137.838 38.1596C138.48 39.1576 139.376 39.6553 140.532 39.6553C141.665 39.6553 142.555 39.1472 143.196 38.1335C143.743 37.2932 144.019 36.2939 144.019 35.1421Z" fill="white"/>
<path d="M156.743 31.3466C156.449 31.2958 156.136 31.2697 155.807 31.2697C154.763 31.2697 153.956 31.6384 153.388 32.3772C152.894 33.0286 152.647 33.8521 152.647 34.8462V41.4063H149.681L149.709 32.841C149.709 31.4 149.671 30.088 149.597 28.9049H152.182L152.29 31.2971H152.372C152.686 30.4749 153.18 29.8131 153.856 29.3167C154.517 28.8698 155.231 28.647 156.001 28.647C156.275 28.647 156.523 28.6652 156.743 28.6978V31.3466Z" fill="white"/>
<path d="M170.013 34.5633C170.013 35.061 169.978 35.4806 169.904 35.8232H161.003C161.038 37.0584 161.468 38.003 162.294 38.6544C163.044 39.2368 164.015 39.5287 165.206 39.5287C166.524 39.5287 167.726 39.3319 168.808 38.9372L169.273 40.8655C168.009 41.3814 166.517 41.6381 164.795 41.6381C162.724 41.6381 161.099 41.0674 159.916 39.9274C158.736 38.7873 158.144 37.2564 158.144 35.3359C158.144 33.4507 158.694 31.8807 159.795 30.6286C160.947 29.2918 162.504 28.6234 164.464 28.6234C166.389 28.6234 167.846 29.2918 168.836 30.6286C169.619 31.6904 170.013 33.0038 170.013 34.5633ZM167.184 33.8428C167.203 33.0194 167.01 32.308 166.607 31.7074C166.094 30.9348 165.305 30.5491 164.243 30.5491C163.273 30.5491 162.484 30.9256 161.881 31.6813C161.387 32.282 161.093 33.0025 161.003 33.8415H167.184V33.8428Z" fill="white"/>
<path d="M68.266 13.3999C68.266 14.9334 67.7747 16.0878 66.7935 16.863C65.8847 17.5783 64.5931 17.9366 62.9202 17.9366C62.0907 17.9366 61.3809 17.9027 60.7866 17.835V9.456C61.5618 9.33874 62.3969 9.27881 63.2988 9.27881C64.8923 9.27881 66.0934 9.60323 66.9034 10.2521C67.8109 10.9856 68.266 12.0344 68.266 13.3999ZM66.7281 13.4377C66.7281 12.4436 66.4469 11.6814 65.8847 11.1498C65.3224 10.6195 64.5013 10.3537 63.4198 10.3537C62.9606 10.3537 62.5695 10.3824 62.2452 10.4423V16.8122C62.4247 16.8382 62.7532 16.85 63.2306 16.85C64.3468 16.85 65.2083 16.5594 65.8151 15.9783C66.4219 15.3972 66.7281 14.5503 66.7281 13.4377Z" fill="white"/>
<path d="M76.4199 14.74C76.4199 15.6846 76.1318 16.4586 75.5556 17.0657C74.9516 17.6898 74.1514 18.0012 73.1521 18.0012C72.189 18.0012 71.4221 17.7028 70.8501 17.1035C70.2795 16.5055 69.9941 15.7511 69.9941 14.8417C69.9941 13.8906 70.2878 13.1101 70.8779 12.5043C71.468 11.8984 72.2613 11.5948 73.2606 11.5948C74.2237 11.5948 74.9975 11.8932 75.5835 12.4912C76.1402 13.0723 76.4199 13.8228 76.4199 14.74ZM74.9071 14.7843C74.9071 14.2176 74.7763 13.7316 74.516 13.3264C74.2098 12.8365 73.7742 12.5916 73.2077 12.5916C72.6218 12.5916 72.1764 12.8365 71.8702 13.3264C71.6086 13.7316 71.4792 14.2254 71.4792 14.8091C71.4792 15.3759 71.61 15.8618 71.8702 16.267C72.1862 16.7569 72.626 17.0019 73.1938 17.0019C73.7505 17.0019 74.1875 16.753 74.5021 16.254C74.7721 15.841 74.9071 15.3511 74.9071 14.7843Z" fill="white"/>
<path d="M87.3539 11.7196L85.301 17.8615H83.965L83.1146 15.1944C82.8989 14.5287 82.7235 13.8668 82.5871 13.2101H82.5607C82.434 13.885 82.2586 14.5456 82.0332 15.1944L81.1299 17.8615H79.7785L77.8481 11.7196H79.3471L80.0889 14.6394C80.2684 15.3299 80.416 15.9879 80.5343 16.6107H80.5607C80.6692 16.0973 80.8488 15.4433 81.1021 14.6524L82.0332 11.7209H83.2218L84.1139 14.5899C84.3296 15.2895 84.505 15.9631 84.64 16.612H84.6803C84.7791 15.9801 84.9281 15.3065 85.1257 14.5899L85.9218 11.7209H87.3539V11.7196Z" fill="white"/>
<path d="M94.9153 17.8618H93.4567V14.344C93.4567 13.26 93.0169 12.718 92.1346 12.718C91.7017 12.718 91.3524 12.8665 91.081 13.1648C90.8124 13.4632 90.676 13.815 90.676 14.2176V17.8605H89.2174V13.4749C89.2174 12.9355 89.1993 12.3505 89.1646 11.7173H90.4464L90.5146 12.6776H90.5549C90.7247 12.3792 90.978 12.1329 91.3106 11.9362C91.7059 11.7069 92.1485 11.5909 92.6328 11.5909C93.2452 11.5909 93.7546 11.776 94.1596 12.1473C94.6634 12.602 94.9153 13.2808 94.9153 14.1824V17.8618Z" fill="white"/>
<path d="M98.9376 17.8619H97.4805V8.90186H98.9376V17.8619Z" fill="white"/>
<path d="M107.525 14.74C107.525 15.6846 107.237 16.4586 106.661 17.0657C106.057 17.6898 105.255 18.0012 104.257 18.0012C103.293 18.0012 102.526 17.7028 101.955 17.1035C101.384 16.5055 101.099 15.7511 101.099 14.8417C101.099 13.8906 101.393 13.1101 101.983 12.5043C102.573 11.8984 103.366 11.5948 104.364 11.5948C105.329 11.5948 106.101 11.8932 106.688 12.4912C107.245 13.0723 107.525 13.8228 107.525 14.74ZM106.011 14.7843C106.011 14.2176 105.88 13.7316 105.62 13.3264C105.315 12.8365 104.878 12.5916 104.313 12.5916C103.725 12.5916 103.28 12.8365 102.975 13.3264C102.714 13.7316 102.584 14.2254 102.584 14.8091C102.584 15.3759 102.715 15.8618 102.975 16.267C103.291 16.7569 103.731 17.0019 104.299 17.0019C104.856 17.0019 105.291 16.753 105.606 16.254C105.877 15.841 106.011 15.3511 106.011 14.7843Z" fill="white"/>
<path d="M114.584 17.8618H113.274L113.166 17.1543H113.125C112.677 17.7185 112.038 18.0012 111.209 18.0012C110.59 18.0012 110.088 17.8149 109.711 17.4449C109.369 17.1087 109.198 16.6905 109.198 16.1941C109.198 15.4436 109.532 14.8716 110.204 14.4756C110.875 14.0795 111.818 13.8853 113.033 13.8945V13.7798C113.033 12.9707 112.58 12.5668 111.671 12.5668C111.024 12.5668 110.453 12.7193 109.96 13.0215L109.664 12.1251C110.274 11.772 111.027 11.5948 111.914 11.5948C113.629 11.5948 114.489 12.4417 114.489 14.1355V16.3973C114.489 17.011 114.521 17.4996 114.584 17.8618ZM113.07 15.7511V14.8039C111.461 14.7778 110.656 15.1909 110.656 16.0416C110.656 16.3622 110.748 16.6019 110.936 16.7621C111.124 16.9224 111.363 17.0019 111.649 17.0019C111.969 17.0019 112.268 16.9068 112.541 16.7178C112.815 16.5276 112.983 16.2866 113.046 15.9908C113.061 15.9244 113.07 15.8436 113.07 15.7511Z" fill="white"/>
<path d="M122.872 17.8619H121.577L121.509 16.8756H121.469C121.056 17.6261 120.351 18.0013 119.362 18.0013C118.571 18.0013 117.913 17.7108 117.391 17.1297C116.869 16.5486 116.609 15.7942 116.609 14.8678C116.609 13.8737 116.891 13.0685 117.459 12.4536C118.009 11.8803 118.683 11.5936 119.484 11.5936C120.365 11.5936 120.982 11.8712 121.333 12.4275H121.36V8.90186H122.82V16.2072C122.82 16.8052 122.837 17.3564 122.872 17.8619ZM121.36 15.2717V14.2477C121.36 14.0705 121.346 13.9271 121.32 13.8177C121.238 13.4894 121.061 13.2132 120.793 12.9904C120.521 12.7676 120.194 12.6555 119.817 12.6555C119.273 12.6555 118.847 12.8575 118.534 13.2627C118.223 13.6679 118.066 14.1851 118.066 14.817C118.066 15.4242 118.215 15.9167 118.514 16.2958C118.83 16.6997 119.256 16.9017 119.789 16.9017C120.268 16.9017 120.651 16.7336 120.941 16.3961C121.223 16.0847 121.36 15.7095 121.36 15.2717Z" fill="white"/>
<path d="M135.346 14.74C135.346 15.6846 135.058 16.4586 134.482 17.0657C133.878 17.6898 133.079 18.0012 132.078 18.0012C131.117 18.0012 130.35 17.7028 129.776 17.1035C129.206 16.5055 128.92 15.7511 128.92 14.8417C128.92 13.8906 129.214 13.1101 129.804 12.5043C130.394 11.8984 131.188 11.5948 132.188 11.5948C133.15 11.5948 133.925 11.8932 134.51 12.4912C135.066 13.0723 135.346 13.8228 135.346 14.74ZM133.835 14.7843C133.835 14.2176 133.704 13.7316 133.444 13.3264C133.136 12.8365 132.702 12.5916 132.134 12.5916C131.549 12.5916 131.104 12.8365 130.797 13.3264C130.535 13.7316 130.405 14.2254 130.405 14.8091C130.405 15.3759 130.536 15.8618 130.797 16.267C131.112 16.7569 131.552 17.0019 132.12 17.0019C132.677 17.0019 133.115 16.753 133.43 16.254C133.698 15.841 133.835 15.3511 133.835 14.7843Z" fill="white"/>
<path d="M143.189 17.8618H141.732V14.344C141.732 13.26 141.292 12.718 140.408 12.718C139.975 12.718 139.626 12.8665 139.356 13.1648C139.086 13.4632 138.951 13.815 138.951 14.2176V17.8605H137.491V13.4749C137.491 12.9355 137.474 12.3505 137.439 11.7173H138.72L138.788 12.6776H138.828C139 12.3792 139.253 12.1329 139.584 11.9362C139.981 11.7069 140.422 11.5909 140.908 11.5909C141.519 11.5909 142.028 11.776 142.433 12.1473C142.938 12.602 143.189 13.2808 143.189 14.1824V17.8618Z" fill="white"/>
<path d="M153.005 12.7427H151.398V15.7263C151.398 16.4846 151.684 16.8638 152.249 16.8638C152.51 16.8638 152.728 16.8429 152.899 16.7999L152.936 17.8357C152.648 17.9373 152.27 17.9882 151.803 17.9882C151.227 17.9882 150.779 17.824 150.455 17.4957C150.129 17.1673 149.968 16.6149 149.968 15.8397V12.7427H149.009V11.7199H149.968V10.5942L151.397 10.1903V11.7186H153.003V12.7427H153.005Z" fill="white"/>
<path d="M160.726 17.8619H159.266V14.3701C159.266 13.2692 158.826 12.718 157.945 12.718C157.269 12.718 156.807 13.0373 156.554 13.6757C156.511 13.8099 156.486 13.974 156.486 14.1669V17.8606H155.028V8.90186H156.486V12.6034H156.513C156.973 11.9298 157.631 11.5936 158.484 11.5936C159.088 11.5936 159.588 11.7787 159.984 12.15C160.478 12.6125 160.726 13.3004 160.726 14.2099V17.8619Z" fill="white"/>
<path d="M168.691 14.5003C168.691 14.7453 168.672 14.9511 168.637 15.1192H164.263C164.282 15.7263 164.491 16.1889 164.896 16.5094C165.266 16.796 165.744 16.9393 166.328 16.9393C166.975 16.9393 167.565 16.8429 168.097 16.6488L168.325 17.5973C167.703 17.8501 166.971 17.9765 166.123 17.9765C165.107 17.9765 164.307 17.6963 163.728 17.1361C163.146 16.5758 162.858 15.8241 162.858 14.8808C162.858 13.9544 163.127 13.1831 163.668 12.5681C164.233 11.9115 164.998 11.5831 165.962 11.5831C166.906 11.5831 167.622 11.9115 168.107 12.5681C168.498 13.0893 168.691 13.7342 168.691 14.5003ZM167.3 14.1472C167.311 13.742 167.215 13.3929 167.017 13.0984C166.764 12.7193 166.378 12.529 165.856 12.529C165.38 12.529 164.992 12.714 164.696 13.0854C164.453 13.3811 164.31 13.7342 164.263 14.1472H167.3Z" fill="white"/>
</svg>
