<svg width="94" height="96" viewBox="0 0 94 96" fill="none" xmlns="http://www.w3.org/2000/svg">
<g filter="url(#filter0_d_204_936)">
<ellipse cx="47" cy="43.0365" rx="32" ry="32.0714" fill="url(#paint0_linear_204_936)"/>
</g>
<path fill-rule="evenodd" clip-rule="evenodd" d="M32 29.8435C31.1716 29.8435 30.5 30.5151 30.5 31.3435V36.9032C30.5 37.7316 31.1716 38.4032 32 38.4032H33.8333V54.8993H32C31.1716 54.8993 30.5 55.5708 30.5 56.3993C30.5 57.2277 31.1716 57.8993 32 57.8993H35.3333H58.6667H62C62.8284 57.8993 63.5 57.2277 63.5 56.3993C63.5 55.5708 62.8284 54.8993 62 54.8993H60.1667V38.4032H62C62.8284 38.4032 63.5 37.7316 63.5 36.9032V31.3435C63.5 30.5151 62.8284 29.8435 62 29.8435H32ZM36.8333 54.8993V38.4032H57.1667V54.8993H51.8332V47.5417C51.8332 45.6087 50.2662 44.0417 48.3332 44.0417H45.6665C43.7335 44.0417 42.1665 45.6087 42.1665 47.5417V54.8993H36.8333ZM45.1665 54.8993H48.8332V47.5417C48.8332 47.2656 48.6093 47.0417 48.3332 47.0417H45.6665C45.3904 47.0417 45.1665 47.2656 45.1665 47.5417V54.8993ZM33.5 35.4032V32.8435H60.5V35.4032H58.6667H35.3333H33.5Z" fill="white"/>
<defs>
<filter id="filter0_d_204_936" x="0" y="0.965088" width="94" height="94.1427" filterUnits="userSpaceOnUse" color-interpolation-filters="sRGB">
<feFlood flood-opacity="0" result="BackgroundImageFix"/>
<feColorMatrix in="SourceAlpha" type="matrix" values="0 0 0 0 0 0 0 0 0 0 0 0 0 0 0 0 0 0 127 0" result="hardAlpha"/>
<feMorphology radius="10" operator="erode" in="SourceAlpha" result="effect1_dropShadow_204_936"/>
<feOffset dy="5"/>
<feGaussianBlur stdDeviation="12.5"/>
<feColorMatrix type="matrix" values="0 0 0 0 0.659958 0 0 0 0 0.220108 0 0 0 0 0.643137 0 0 0 1 0"/>
<feBlend mode="normal" in2="BackgroundImageFix" result="effect1_dropShadow_204_936"/>
<feBlend mode="normal" in="SourceGraphic" in2="effect1_dropShadow_204_936" result="shape"/>
</filter>
<linearGradient id="paint0_linear_204_936" x1="87.1101" y1="30.8429" x2="37.9284" y2="14.6516" gradientUnits="userSpaceOnUse">
<stop stop-color="#703CF4"/>
<stop offset="1" stop-color="#C86DD7"/>
</linearGradient>
</defs>
</svg>
