<svg width="295" height="196" viewBox="0 0 295 196" fill="none" xmlns="http://www.w3.org/2000/svg">
<g filter="url(#filter0_d_204_1207)">
<rect x="20" y="16" width="255" height="156" rx="20" fill="url(#paint0_linear_204_1207)"/>
</g>
<path opacity="0.3" fill-rule="evenodd" clip-rule="evenodd" d="M253.5 36C254.328 36 255 36.6716 255 37.5C255 38.3284 254.328 39 253.5 39H241.5C240.672 39 240 38.3284 240 37.5C240 36.6716 240.672 36 241.5 36H253.5ZM253.5 41.5C254.328 41.5 255 42.1716 255 43C255 43.8284 254.328 44.5 253.5 44.5H241.5C240.672 44.5 240 43.8284 240 43C240 42.1716 240.672 41.5 241.5 41.5H253.5ZM255 48.5C255 47.6716 254.328 47 253.5 47H241.5C240.672 47 240 47.6716 240 48.5C240 49.3284 240.672 50 241.5 50H253.5C254.328 50 255 49.3284 255 48.5ZM255 54C255 53.1716 254.328 52.5 253.5 52.5H241.5C240.672 52.5 240 53.1716 240 54C240 54.8284 240.672 55.5 241.5 55.5H253.5C254.328 55.5 255 54.8284 255 54ZM237.5 54C237.5 53.1716 236.828 52.5 236 52.5H224C223.172 52.5 222.5 53.1716 222.5 54C222.5 54.8284 223.172 55.5 224 55.5H236C236.828 55.5 237.5 54.8284 237.5 54ZM218.5 52.5C219.328 52.5 220 53.1716 220 54C220 54.8284 219.328 55.5 218.5 55.5H206.5C205.672 55.5 205 54.8284 205 54C205 53.1716 205.672 52.5 206.5 52.5H218.5ZM236 47C236.828 47 237.5 47.6716 237.5 48.5C237.5 49.3284 236.828 50 236 50H224C223.172 50 222.5 49.3284 222.5 48.5C222.5 47.6716 223.172 47 224 47H236ZM220 48.5C220 47.6716 219.328 47 218.5 47H206.5C205.672 47 205 47.6716 205 48.5C205 49.3284 205.672 50 206.5 50H218.5C219.328 50 220 49.3284 220 48.5ZM237.5 43C237.5 42.1716 236.828 41.5 236 41.5H224C223.172 41.5 222.5 42.1716 222.5 43C222.5 43.8284 223.172 44.5 224 44.5H236C236.828 44.5 237.5 43.8284 237.5 43Z" fill="url(#paint1_linear_204_1207)"/>
<g filter="url(#filter1_d_204_1207)">
<circle cx="82" cy="70" r="24" fill="url(#paint2_linear_204_1207)"/>
</g>
<path fill-rule="evenodd" clip-rule="evenodd" d="M91.7295 59.5241L67.7809 63.5156C67.6238 63.5386 67.4745 63.5859 67.3372 63.6537C67.1625 63.7396 67.0086 63.8579 66.882 63.9996C66.7236 64.1766 66.6065 64.3915 66.5461 64.6291C66.5137 64.7562 66.4976 64.8889 66.5 65.0244V72.9715C66.4997 72.9891 66.4997 73.0068 66.5 73.0245V84.999C65.2465 84.0575 63.6884 83.4996 62 83.4996C57.8579 83.4996 54.5 86.8574 54.5 90.9996C54.5 95.1417 57.8579 98.4996 62 98.4996C66.1405 98.4996 69.4973 95.1444 69.5 91.0045L69.5 90.9997V90.9996V74.2705L90.5004 70.7704V80.9997C89.2467 80.0578 87.6884 79.4997 85.9996 79.4997C81.8575 79.4997 78.4996 82.8576 78.4996 86.9997C78.4996 91.1419 81.8575 94.4997 85.9996 94.4997C90.1241 94.4997 93.471 91.1704 93.4995 87.0526C93.5001 87.0351 93.5004 87.0175 93.5004 86.9998V60.9997C93.5004 60.2824 92.9969 59.6827 92.324 59.5347C92.1753 59.5018 92.0196 59.4912 91.8612 59.5061C91.8167 59.5102 91.7728 59.5162 91.7295 59.5241ZM90.5004 67.7291V62.7704L69.5 66.2704V71.2291L90.5004 67.7291ZM66.5 90.9996C66.5 88.5143 64.4853 86.4996 62 86.4996C59.5147 86.4996 57.5 88.5143 57.5 90.9996C57.5 93.4848 59.5147 95.4996 62 95.4996C64.4853 95.4996 66.5 93.4848 66.5 90.9996ZM85.9996 82.4997C83.5144 82.4997 81.4996 84.5144 81.4996 86.9997C81.4996 89.485 83.5144 91.4997 85.9996 91.4997C88.4849 91.4997 90.4996 89.485 90.4996 86.9997C90.4996 84.5144 88.4849 82.4997 85.9996 82.4997Z" fill="url(#paint3_linear_204_1207)"/>
<path opacity="0.1" d="M241.27 125.744V118.064H254.998V152H246.358V125.744H241.27Z" fill="white"/>
<path d="M60.714 129.08C61.6087 129.271 62.3273 129.718 62.87 130.422C63.4127 131.111 63.684 131.903 63.684 132.798C63.684 134.089 63.2293 135.115 62.32 135.878C61.4253 136.626 60.1713 137 58.558 137H51.364V121.556H58.316C59.8853 121.556 61.11 121.915 61.99 122.634C62.8847 123.353 63.332 124.328 63.332 125.56C63.332 126.469 63.09 127.225 62.606 127.826C62.1367 128.427 61.506 128.845 60.714 129.08ZM55.126 127.804H57.59C58.206 127.804 58.6753 127.672 58.998 127.408C59.3353 127.129 59.504 126.726 59.504 126.198C59.504 125.67 59.3353 125.267 58.998 124.988C58.6753 124.709 58.206 124.57 57.59 124.57H55.126V127.804ZM57.898 133.964C58.5287 133.964 59.0127 133.825 59.35 133.546C59.702 133.253 59.878 132.835 59.878 132.292C59.878 131.749 59.6947 131.324 59.328 131.016C58.976 130.708 58.4847 130.554 57.854 130.554H55.126V133.964H57.898ZM77.438 130.664C77.438 131.016 77.416 131.383 77.372 131.764H68.858C68.9166 132.527 69.1586 133.113 69.584 133.524C70.024 133.92 70.5593 134.118 71.19 134.118C72.1286 134.118 72.7813 133.722 73.148 132.93H77.152C76.9466 133.737 76.5726 134.463 76.03 135.108C75.502 135.753 74.8346 136.259 74.028 136.626C73.2213 136.993 72.3193 137.176 71.322 137.176C70.1193 137.176 69.0486 136.919 68.11 136.406C67.1713 135.893 66.438 135.159 65.91 134.206C65.382 133.253 65.118 132.138 65.118 130.862C65.118 129.586 65.3746 128.471 65.888 127.518C66.416 126.565 67.1493 125.831 68.088 125.318C69.0266 124.805 70.1046 124.548 71.322 124.548C72.51 124.548 73.566 124.797 74.49 125.296C75.414 125.795 76.1326 126.506 76.646 127.43C77.174 128.354 77.438 129.432 77.438 130.664ZM73.588 129.674C73.588 129.029 73.368 128.515 72.928 128.134C72.488 127.753 71.938 127.562 71.278 127.562C70.6473 127.562 70.112 127.745 69.672 128.112C69.2466 128.479 68.9826 128.999 68.88 129.674H73.588ZM78.6746 130.84C78.6746 129.579 78.9093 128.471 79.3786 127.518C79.8626 126.565 80.5153 125.831 81.3366 125.318C82.1579 124.805 83.0746 124.548 84.0866 124.548C84.9519 124.548 85.7073 124.724 86.3526 125.076C87.0126 125.428 87.5186 125.89 87.8706 126.462V124.724H91.6326V137H87.8706V135.262C87.5039 135.834 86.9906 136.296 86.3306 136.648C85.6853 137 84.9299 137.176 84.0646 137.176C83.0673 137.176 82.1579 136.919 81.3366 136.406C80.5153 135.878 79.8626 135.137 79.3786 134.184C78.9093 133.216 78.6746 132.101 78.6746 130.84ZM87.8706 130.862C87.8706 129.923 87.6066 129.183 87.0786 128.64C86.5653 128.097 85.9346 127.826 85.1866 127.826C84.4386 127.826 83.8006 128.097 83.2726 128.64C82.7593 129.168 82.5026 129.901 82.5026 130.84C82.5026 131.779 82.7593 132.527 83.2726 133.084C83.8006 133.627 84.4386 133.898 85.1866 133.898C85.9346 133.898 86.5653 133.627 87.0786 133.084C87.6066 132.541 87.8706 131.801 87.8706 130.862ZM101.196 133.81V137H99.2822C97.9182 137 96.8549 136.67 96.0922 136.01C95.3296 135.335 94.9482 134.243 94.9482 132.732V127.848H93.4522V124.724H94.9482V121.732H98.7102V124.724H101.174V127.848H98.7102V132.776C98.7102 133.143 98.7982 133.407 98.9742 133.568C99.1502 133.729 99.4436 133.81 99.8542 133.81H101.196ZM112.642 129.08C113.536 129.271 114.255 129.718 114.798 130.422C115.34 131.111 115.612 131.903 115.612 132.798C115.612 134.089 115.157 135.115 114.248 135.878C113.353 136.626 112.099 137 110.486 137H103.292V121.556H110.244C111.813 121.556 113.038 121.915 113.918 122.634C114.812 123.353 115.26 124.328 115.26 125.56C115.26 126.469 115.018 127.225 114.534 127.826C114.064 128.427 113.434 128.845 112.642 129.08ZM107.054 127.804H109.518C110.134 127.804 110.603 127.672 110.926 127.408C111.263 127.129 111.432 126.726 111.432 126.198C111.432 125.67 111.263 125.267 110.926 124.988C110.603 124.709 110.134 124.57 109.518 124.57H107.054V127.804ZM109.826 133.964C110.456 133.964 110.94 133.825 111.278 133.546C111.63 133.253 111.806 132.835 111.806 132.292C111.806 131.749 111.622 131.324 111.256 131.016C110.904 130.708 110.412 130.554 109.782 130.554H107.054V133.964H109.826ZM119.686 123.448C119.026 123.448 118.483 123.257 118.058 122.876C117.647 122.48 117.442 121.996 117.442 121.424C117.442 120.837 117.647 120.353 118.058 119.972C118.483 119.576 119.026 119.378 119.686 119.378C120.331 119.378 120.859 119.576 121.27 119.972C121.695 120.353 121.908 120.837 121.908 121.424C121.908 121.996 121.695 122.48 121.27 122.876C120.859 123.257 120.331 123.448 119.686 123.448ZM121.556 124.724V137H117.794V124.724H121.556ZM123.534 130.84C123.534 129.579 123.769 128.471 124.238 127.518C124.722 126.565 125.375 125.831 126.196 125.318C127.017 124.805 127.934 124.548 128.946 124.548C129.753 124.548 130.486 124.717 131.146 125.054C131.821 125.391 132.349 125.846 132.73 126.418V120.72H136.492V137H132.73V135.24C132.378 135.827 131.872 136.296 131.212 136.648C130.567 137 129.811 137.176 128.946 137.176C127.934 137.176 127.017 136.919 126.196 136.406C125.375 135.878 124.722 135.137 124.238 134.184C123.769 133.216 123.534 132.101 123.534 130.84ZM132.73 130.862C132.73 129.923 132.466 129.183 131.938 128.64C131.425 128.097 130.794 127.826 130.046 127.826C129.298 127.826 128.66 128.097 128.132 128.64C127.619 129.168 127.362 129.901 127.362 130.84C127.362 131.779 127.619 132.527 128.132 133.084C128.66 133.627 129.298 133.898 130.046 133.898C130.794 133.898 131.425 133.627 131.938 133.084C132.466 132.541 132.73 131.801 132.73 130.862ZM138.466 130.84C138.466 129.579 138.7 128.471 139.17 127.518C139.654 126.565 140.306 125.831 141.128 125.318C141.949 124.805 142.866 124.548 143.878 124.548C144.684 124.548 145.418 124.717 146.078 125.054C146.752 125.391 147.28 125.846 147.662 126.418V120.72H151.424V137H147.662V135.24C147.31 135.827 146.804 136.296 146.144 136.648C145.498 137 144.743 137.176 143.878 137.176C142.866 137.176 141.949 136.919 141.128 136.406C140.306 135.878 139.654 135.137 139.17 134.184C138.7 133.216 138.466 132.101 138.466 130.84ZM147.662 130.862C147.662 129.923 147.398 129.183 146.87 128.64C146.356 128.097 145.726 127.826 144.978 127.826C144.23 127.826 143.592 128.097 143.064 128.64C142.55 129.168 142.294 129.901 142.294 130.84C142.294 131.779 142.55 132.527 143.064 133.084C143.592 133.627 144.23 133.898 144.978 133.898C145.726 133.898 146.356 133.627 146.87 133.084C147.398 132.541 147.662 131.801 147.662 130.862ZM165.717 130.664C165.717 131.016 165.695 131.383 165.651 131.764H157.137C157.196 132.527 157.438 133.113 157.863 133.524C158.303 133.92 158.839 134.118 159.469 134.118C160.408 134.118 161.061 133.722 161.427 132.93H165.431C165.226 133.737 164.852 134.463 164.309 135.108C163.781 135.753 163.114 136.259 162.307 136.626C161.501 136.993 160.599 137.176 159.601 137.176C158.399 137.176 157.328 136.919 156.389 136.406C155.451 135.893 154.717 135.159 154.189 134.206C153.661 133.253 153.397 132.138 153.397 130.862C153.397 129.586 153.654 128.471 154.167 127.518C154.695 126.565 155.429 125.831 156.367 125.318C157.306 124.805 158.384 124.548 159.601 124.548C160.789 124.548 161.845 124.797 162.769 125.296C163.693 125.795 164.412 126.506 164.925 127.43C165.453 128.354 165.717 129.432 165.717 130.664ZM161.867 129.674C161.867 129.029 161.647 128.515 161.207 128.134C160.767 127.753 160.217 127.562 159.557 127.562C158.927 127.562 158.391 127.745 157.951 128.112C157.526 128.479 157.262 128.999 157.159 129.674H161.867ZM171.464 126.77C171.904 126.095 172.454 125.567 173.114 125.186C173.774 124.79 174.507 124.592 175.314 124.592V128.574H174.28C173.341 128.574 172.637 128.779 172.168 129.19C171.699 129.586 171.464 130.29 171.464 131.302V137H167.702V124.724H171.464V126.77Z" fill="white"/>
<defs>
<filter id="filter0_d_204_1207" x="0" y="0" width="295" height="196" filterUnits="userSpaceOnUse" color-interpolation-filters="sRGB">
<feFlood flood-opacity="0" result="BackgroundImageFix"/>
<feColorMatrix in="SourceAlpha" type="matrix" values="0 0 0 0 0 0 0 0 0 0 0 0 0 0 0 0 0 0 127 0" result="hardAlpha"/>
<feOffset dy="4"/>
<feGaussianBlur stdDeviation="10"/>
<feComposite in2="hardAlpha" operator="out"/>
<feColorMatrix type="matrix" values="0 0 0 0 0 0 0 0 0 0 0 0 0 0 0 0 0 0 0.1 0"/>
<feBlend mode="normal" in2="BackgroundImageFix" result="effect1_dropShadow_204_1207"/>
<feBlend mode="normal" in="SourceGraphic" in2="effect1_dropShadow_204_1207" result="shape"/>
</filter>
<filter id="filter1_d_204_1207" x="38" y="30" width="88" height="88" filterUnits="userSpaceOnUse" color-interpolation-filters="sRGB">
<feFlood flood-opacity="0" result="BackgroundImageFix"/>
<feColorMatrix in="SourceAlpha" type="matrix" values="0 0 0 0 0 0 0 0 0 0 0 0 0 0 0 0 0 0 127 0" result="hardAlpha"/>
<feOffset dy="4"/>
<feGaussianBlur stdDeviation="10"/>
<feComposite in2="hardAlpha" operator="out"/>
<feColorMatrix type="matrix" values="0 0 0 0 0 0 0 0 0 0 0 0 0 0 0 0 0 0 0.1 0"/>
<feBlend mode="normal" in2="BackgroundImageFix" result="effect1_dropShadow_204_1207"/>
<feBlend mode="normal" in="SourceGraphic" in2="effect1_dropShadow_204_1207" result="shape"/>
</filter>
<linearGradient id="paint0_linear_204_1207" x1="147.5" y1="16" x2="147.5" y2="172" gradientUnits="userSpaceOnUse">
<stop stop-color="#1B0F51"/>
<stop offset="1" stop-color="#33338F"/>
</linearGradient>
<linearGradient id="paint1_linear_204_1207" x1="243.984" y1="36.5254" x2="235.809" y2="65.6156" gradientUnits="userSpaceOnUse">
<stop stop-color="#47B5F5"/>
<stop offset="1" stop-color="#DD47F5"/>
</linearGradient>
<linearGradient id="paint2_linear_204_1207" x1="82" y1="46" x2="82" y2="94" gradientUnits="userSpaceOnUse">
<stop stop-color="#2E0D77"/>
<stop offset="1" stop-color="#7130A1"/>
</linearGradient>
<linearGradient id="paint3_linear_204_1207" x1="63.0926" y1="56.014" x2="99.7138" y2="99.0166" gradientUnits="userSpaceOnUse">
<stop stop-color="#47B5F5"/>
<stop offset="1" stop-color="#DD47F5"/>
</linearGradient>
</defs>
</svg>
