<svg width="295" height="196" viewBox="0 0 295 196" fill="none" xmlns="http://www.w3.org/2000/svg">
<g filter="url(#filter0_d_204_1188)">
<rect x="20" y="16" width="255" height="156" rx="20" fill="url(#paint0_linear_204_1188)"/>
</g>
<path opacity="0.3" fill-rule="evenodd" clip-rule="evenodd" d="M253.5 36C254.328 36 255 36.6716 255 37.5C255 38.3284 254.328 39 253.5 39H241.5C240.672 39 240 38.3284 240 37.5C240 36.6716 240.672 36 241.5 36H253.5ZM253.5 41.5C254.328 41.5 255 42.1716 255 43C255 43.8284 254.328 44.5 253.5 44.5H241.5C240.672 44.5 240 43.8284 240 43C240 42.1716 240.672 41.5 241.5 41.5H253.5ZM255 48.5C255 47.6716 254.328 47 253.5 47H241.5C240.672 47 240 47.6716 240 48.5C240 49.3284 240.672 50 241.5 50H253.5C254.328 50 255 49.3284 255 48.5ZM255 54C255 53.1716 254.328 52.5 253.5 52.5H241.5C240.672 52.5 240 53.1716 240 54C240 54.8284 240.672 55.5 241.5 55.5H253.5C254.328 55.5 255 54.8284 255 54ZM237.5 54C237.5 53.1716 236.828 52.5 236 52.5H224C223.172 52.5 222.5 53.1716 222.5 54C222.5 54.8284 223.172 55.5 224 55.5H236C236.828 55.5 237.5 54.8284 237.5 54ZM218.5 52.5C219.328 52.5 220 53.1716 220 54C220 54.8284 219.328 55.5 218.5 55.5H206.5C205.672 55.5 205 54.8284 205 54C205 53.1716 205.672 52.5 206.5 52.5H218.5ZM236 47C236.828 47 237.5 47.6716 237.5 48.5C237.5 49.3284 236.828 50 236 50H224C223.172 50 222.5 49.3284 222.5 48.5C222.5 47.6716 223.172 47 224 47H236ZM220 48.5C220 47.6716 219.328 47 218.5 47H206.5C205.672 47 205 47.6716 205 48.5C205 49.3284 205.672 50 206.5 50H218.5C219.328 50 220 49.3284 220 48.5ZM237.5 43C237.5 42.1716 236.828 41.5 236 41.5H224C223.172 41.5 222.5 42.1716 222.5 43C222.5 43.8284 223.172 44.5 224 44.5H236C236.828 44.5 237.5 43.8284 237.5 43Z" fill="url(#paint1_linear_204_1188)"/>
<g filter="url(#filter1_d_204_1188)">
<circle cx="82" cy="70" r="24" fill="url(#paint2_linear_204_1188)"/>
</g>
<path fill-rule="evenodd" clip-rule="evenodd" d="M54.5 66C54.5 64.067 56.067 62.5 58 62.5H90C91.933 62.5 93.5 64.067 93.5 66V74C93.5 74.8284 92.8284 75.5 92 75.5C91.3579 75.5 90.7207 75.7438 90.2322 76.2322C89.2559 77.2085 89.2559 78.7915 90.2322 79.7678C90.7207 80.2562 91.3579 80.5 92 80.5C92.8284 80.5 93.5 81.1716 93.5 82V90.0004C93.5 91.9339 91.9326 93.5 90 93.5H58C56.067 93.5 54.5 91.933 54.5 90V82C54.5 81.1716 55.1716 80.5 56 80.5C56.6421 80.5 57.2793 80.2562 57.7678 79.7678C58.7441 78.7915 58.7441 77.2085 57.7678 76.2322C57.2793 75.7438 56.6421 75.5 56 75.5C55.1716 75.5 54.5 74.8284 54.5 74V66ZM58 65.5C57.7239 65.5 57.5 65.7239 57.5 66V72.7078C58.3747 72.955 59.201 73.4228 59.8891 74.1109C62.037 76.2588 62.037 79.7412 59.8891 81.8891C59.201 82.5772 58.3747 83.045 57.5 83.2922V90C57.5 90.2761 57.7239 90.5 58 90.5H68.5V65.5H58ZM71.5 65.5V90.5H90C90.2766 90.5 90.5 90.2762 90.5 90.0004V83.2922C89.6253 83.045 88.799 82.5772 88.1109 81.8891C85.963 79.7412 85.963 76.2588 88.1109 74.1109C88.799 73.4228 89.6253 72.955 90.5 72.7078V66C90.5 65.7239 90.2761 65.5 90 65.5H71.5Z" fill="url(#paint3_linear_204_1188)"/>
<path opacity="0.1" d="M230.81 145.856C240.986 138.592 246.074 132.816 246.074 128.528C246.074 125.904 244.938 124.592 242.666 124.592C241.386 124.592 240.442 125.04 239.834 125.936C239.258 126.832 238.938 128.224 238.874 130.112H230.858C231.05 125.984 232.298 122.88 234.602 120.8C236.906 118.72 239.818 117.68 243.338 117.68C247.018 117.68 249.786 118.608 251.642 120.464C253.53 122.32 254.474 124.736 254.474 127.712C254.474 131.008 253.21 134.24 250.682 137.408C248.154 140.544 245.13 143.2 241.61 145.376H255.002V152H230.81V145.856Z" fill="white"/>
<path d="M60.714 129.08C61.6087 129.271 62.3273 129.718 62.87 130.422C63.4127 131.111 63.684 131.903 63.684 132.798C63.684 134.089 63.2293 135.115 62.32 135.878C61.4253 136.626 60.1713 137 58.558 137H51.364V121.556H58.316C59.8853 121.556 61.11 121.915 61.99 122.634C62.8847 123.353 63.332 124.328 63.332 125.56C63.332 126.469 63.09 127.225 62.606 127.826C62.1367 128.427 61.506 128.845 60.714 129.08ZM55.126 127.804H57.59C58.206 127.804 58.6753 127.672 58.998 127.408C59.3353 127.129 59.504 126.726 59.504 126.198C59.504 125.67 59.3353 125.267 58.998 124.988C58.6753 124.709 58.206 124.57 57.59 124.57H55.126V127.804ZM57.898 133.964C58.5287 133.964 59.0127 133.825 59.35 133.546C59.702 133.253 59.878 132.835 59.878 132.292C59.878 131.749 59.6947 131.324 59.328 131.016C58.976 130.708 58.4847 130.554 57.854 130.554H55.126V133.964H57.898ZM77.438 130.664C77.438 131.016 77.416 131.383 77.372 131.764H68.858C68.9166 132.527 69.1586 133.113 69.584 133.524C70.024 133.92 70.5593 134.118 71.19 134.118C72.1286 134.118 72.7813 133.722 73.148 132.93H77.152C76.9466 133.737 76.5726 134.463 76.03 135.108C75.502 135.753 74.8346 136.259 74.028 136.626C73.2213 136.993 72.3193 137.176 71.322 137.176C70.1193 137.176 69.0486 136.919 68.11 136.406C67.1713 135.893 66.438 135.159 65.91 134.206C65.382 133.253 65.118 132.138 65.118 130.862C65.118 129.586 65.3746 128.471 65.888 127.518C66.416 126.565 67.1493 125.831 68.088 125.318C69.0266 124.805 70.1046 124.548 71.322 124.548C72.51 124.548 73.566 124.797 74.49 125.296C75.414 125.795 76.1326 126.506 76.646 127.43C77.174 128.354 77.438 129.432 77.438 130.664ZM73.588 129.674C73.588 129.029 73.368 128.515 72.928 128.134C72.488 127.753 71.938 127.562 71.278 127.562C70.6473 127.562 70.112 127.745 69.672 128.112C69.2466 128.479 68.9826 128.999 68.88 129.674H73.588ZM78.6746 130.84C78.6746 129.579 78.9093 128.471 79.3786 127.518C79.8626 126.565 80.5153 125.831 81.3366 125.318C82.1579 124.805 83.0746 124.548 84.0866 124.548C84.9519 124.548 85.7073 124.724 86.3526 125.076C87.0126 125.428 87.5186 125.89 87.8706 126.462V124.724H91.6326V137H87.8706V135.262C87.5039 135.834 86.9906 136.296 86.3306 136.648C85.6853 137 84.9299 137.176 84.0646 137.176C83.0673 137.176 82.1579 136.919 81.3366 136.406C80.5153 135.878 79.8626 135.137 79.3786 134.184C78.9093 133.216 78.6746 132.101 78.6746 130.84ZM87.8706 130.862C87.8706 129.923 87.6066 129.183 87.0786 128.64C86.5653 128.097 85.9346 127.826 85.1866 127.826C84.4386 127.826 83.8006 128.097 83.2726 128.64C82.7593 129.168 82.5026 129.901 82.5026 130.84C82.5026 131.779 82.7593 132.527 83.2726 133.084C83.8006 133.627 84.4386 133.898 85.1866 133.898C85.9346 133.898 86.5653 133.627 87.0786 133.084C87.6066 132.541 87.8706 131.801 87.8706 130.862ZM101.196 133.81V137H99.2822C97.9182 137 96.8549 136.67 96.0922 136.01C95.3296 135.335 94.9482 134.243 94.9482 132.732V127.848H93.4522V124.724H94.9482V121.732H98.7102V124.724H101.174V127.848H98.7102V132.776C98.7102 133.143 98.7982 133.407 98.9742 133.568C99.1502 133.729 99.4436 133.81 99.8542 133.81H101.196ZM112.642 129.08C113.536 129.271 114.255 129.718 114.798 130.422C115.34 131.111 115.612 131.903 115.612 132.798C115.612 134.089 115.157 135.115 114.248 135.878C113.353 136.626 112.099 137 110.486 137H103.292V121.556H110.244C111.813 121.556 113.038 121.915 113.918 122.634C114.812 123.353 115.26 124.328 115.26 125.56C115.26 126.469 115.018 127.225 114.534 127.826C114.064 128.427 113.434 128.845 112.642 129.08ZM107.054 127.804H109.518C110.134 127.804 110.603 127.672 110.926 127.408C111.263 127.129 111.432 126.726 111.432 126.198C111.432 125.67 111.263 125.267 110.926 124.988C110.603 124.709 110.134 124.57 109.518 124.57H107.054V127.804ZM109.826 133.964C110.456 133.964 110.94 133.825 111.278 133.546C111.63 133.253 111.806 132.835 111.806 132.292C111.806 131.749 111.622 131.324 111.256 131.016C110.904 130.708 110.412 130.554 109.782 130.554H107.054V133.964H109.826ZM129.916 124.724V137H126.154V135.328C125.772 135.871 125.252 136.311 124.592 136.648C123.946 136.971 123.228 137.132 122.436 137.132C121.497 137.132 120.668 136.927 119.95 136.516C119.231 136.091 118.674 135.482 118.278 134.69C117.882 133.898 117.684 132.967 117.684 131.896V124.724H121.424V131.39C121.424 132.211 121.636 132.849 122.062 133.304C122.487 133.759 123.059 133.986 123.778 133.986C124.511 133.986 125.09 133.759 125.516 133.304C125.941 132.849 126.154 132.211 126.154 131.39V124.724H129.916ZM145.158 124.724L137.458 142.83H133.41L136.226 136.582L131.232 124.724H135.434L138.272 132.402L141.088 124.724H145.158Z" fill="white"/>
<defs>
<filter id="filter0_d_204_1188" x="0" y="0" width="295" height="196" filterUnits="userSpaceOnUse" color-interpolation-filters="sRGB">
<feFlood flood-opacity="0" result="BackgroundImageFix"/>
<feColorMatrix in="SourceAlpha" type="matrix" values="0 0 0 0 0 0 0 0 0 0 0 0 0 0 0 0 0 0 127 0" result="hardAlpha"/>
<feOffset dy="4"/>
<feGaussianBlur stdDeviation="10"/>
<feComposite in2="hardAlpha" operator="out"/>
<feColorMatrix type="matrix" values="0 0 0 0 0 0 0 0 0 0 0 0 0 0 0 0 0 0 0.1 0"/>
<feBlend mode="normal" in2="BackgroundImageFix" result="effect1_dropShadow_204_1188"/>
<feBlend mode="normal" in="SourceGraphic" in2="effect1_dropShadow_204_1188" result="shape"/>
</filter>
<filter id="filter1_d_204_1188" x="38" y="30" width="88" height="88" filterUnits="userSpaceOnUse" color-interpolation-filters="sRGB">
<feFlood flood-opacity="0" result="BackgroundImageFix"/>
<feColorMatrix in="SourceAlpha" type="matrix" values="0 0 0 0 0 0 0 0 0 0 0 0 0 0 0 0 0 0 127 0" result="hardAlpha"/>
<feOffset dy="4"/>
<feGaussianBlur stdDeviation="10"/>
<feComposite in2="hardAlpha" operator="out"/>
<feColorMatrix type="matrix" values="0 0 0 0 0 0 0 0 0 0 0 0 0 0 0 0 0 0 0.1 0"/>
<feBlend mode="normal" in2="BackgroundImageFix" result="effect1_dropShadow_204_1188"/>
<feBlend mode="normal" in="SourceGraphic" in2="effect1_dropShadow_204_1188" result="shape"/>
</filter>
<linearGradient id="paint0_linear_204_1188" x1="147.5" y1="16" x2="147.5" y2="172" gradientUnits="userSpaceOnUse">
<stop stop-color="#250A61"/>
<stop offset="1" stop-color="#471C76"/>
</linearGradient>
<linearGradient id="paint1_linear_204_1188" x1="243.984" y1="36.5254" x2="235.809" y2="65.6156" gradientUnits="userSpaceOnUse">
<stop stop-color="#47B5F5"/>
<stop offset="1" stop-color="#DD47F5"/>
</linearGradient>
<linearGradient id="paint2_linear_204_1188" x1="82" y1="46" x2="82" y2="94" gradientUnits="userSpaceOnUse">
<stop stop-color="#2E0D77"/>
<stop offset="1" stop-color="#7130A1"/>
</linearGradient>
<linearGradient id="paint3_linear_204_1188" x1="63.0925" y1="59.7295" x2="90.4674" y2="100.17" gradientUnits="userSpaceOnUse">
<stop stop-color="#47B5F5"/>
<stop offset="1" stop-color="#DD47F5"/>
</linearGradient>
</defs>
</svg>
