<svg width="295" height="196" viewBox="0 0 295 196" fill="none" xmlns="http://www.w3.org/2000/svg">
<g filter="url(#filter0_d_204_1142)">
<rect x="20" y="16" width="255" height="156" rx="20" fill="url(#paint0_linear_204_1142)"/>
</g>
<path opacity="0.1" d="M226.58 145.76V138.896L242.084 117.632H250.916V138.608H254.996V145.76H250.916V152H242.612V145.76H226.58ZM243.284 127.136L234.932 138.608H243.284V127.136Z" fill="white"/>
<path opacity="0.3" fill-rule="evenodd" clip-rule="evenodd" d="M253.5 36C254.328 36 255 36.6716 255 37.5C255 38.3284 254.328 39 253.5 39H241.5C240.672 39 240 38.3284 240 37.5C240 36.6716 240.672 36 241.5 36H253.5ZM253.5 41.5C254.328 41.5 255 42.1716 255 43C255 43.8284 254.328 44.5 253.5 44.5H241.5C240.672 44.5 240 43.8284 240 43C240 42.1716 240.672 41.5 241.5 41.5H253.5ZM255 48.5C255 47.6716 254.328 47 253.5 47H241.5C240.672 47 240 47.6716 240 48.5C240 49.3284 240.672 50 241.5 50H253.5C254.328 50 255 49.3284 255 48.5ZM255 54C255 53.1716 254.328 52.5 253.5 52.5H241.5C240.672 52.5 240 53.1716 240 54C240 54.8284 240.672 55.5 241.5 55.5H253.5C254.328 55.5 255 54.8284 255 54ZM237.5 54C237.5 53.1716 236.828 52.5 236 52.5H224C223.172 52.5 222.5 53.1716 222.5 54C222.5 54.8284 223.172 55.5 224 55.5H236C236.828 55.5 237.5 54.8284 237.5 54ZM218.5 52.5C219.328 52.5 220 53.1716 220 54C220 54.8284 219.328 55.5 218.5 55.5H206.5C205.672 55.5 205 54.8284 205 54C205 53.1716 205.672 52.5 206.5 52.5H218.5ZM236 47C236.828 47 237.5 47.6716 237.5 48.5C237.5 49.3284 236.828 50 236 50H224C223.172 50 222.5 49.3284 222.5 48.5C222.5 47.6716 223.172 47 224 47H236ZM220 48.5C220 47.6716 219.328 47 218.5 47H206.5C205.672 47 205 47.6716 205 48.5C205 49.3284 205.672 50 206.5 50H218.5C219.328 50 220 49.3284 220 48.5ZM237.5 43C237.5 42.1716 236.828 41.5 236 41.5H224C223.172 41.5 222.5 42.1716 222.5 43C222.5 43.8284 223.172 44.5 224 44.5H236C236.828 44.5 237.5 43.8284 237.5 43Z" fill="url(#paint1_linear_204_1142)"/>
<g filter="url(#filter1_d_204_1142)">
<circle cx="85" cy="72" r="24" fill="url(#paint2_linear_204_1142)"/>
</g>
<path fill-rule="evenodd" clip-rule="evenodd" d="M91.0607 56.9394C90.6317 56.5104 89.9865 56.3821 89.426 56.6142C88.8655 56.8464 88.5 57.3934 88.5 58V67.0998C87.7499 66.7163 86.9002 66.5 86 66.5C82.9624 66.5 80.5 68.9625 80.5 72C80.5 75.0376 82.9624 77.5 86 77.5C89.0376 77.5 91.5 75.0376 91.5 72V61.6214L92.9393 63.0607C93.5251 63.6465 94.4749 63.6465 95.0607 63.0607C95.6464 62.4749 95.6464 61.5252 95.0607 60.9394L91.0607 56.9394ZM88.5 72C88.5 70.6193 87.3807 69.5 86 69.5C84.6193 69.5 83.5 70.6193 83.5 72C83.5 73.3808 84.6193 74.5 86 74.5C87.3807 74.5 88.5 73.3808 88.5 72ZM74 61.5C64.8873 61.5 57.5 68.8873 57.5 78C57.5 87.1127 64.8873 94.5 74 94.5C81.6088 94.5 88.0183 89.3485 89.9236 82.3403C90.1409 81.5409 90.9652 81.0691 91.7646 81.2864C92.564 81.5037 93.0358 82.328 92.8185 83.1274C90.5671 91.4084 82.9969 97.5 74 97.5C63.2304 97.5 54.5 88.7696 54.5 78C54.5 67.2305 63.2304 58.5 74 58.5C76.5361 58.5 78.9626 58.985 81.1892 59.8685C81.9592 60.174 82.3357 61.046 82.0302 61.816C81.7246 62.586 80.8527 62.9625 80.0827 62.657C78.2024 61.9109 76.151 61.5 74 61.5ZM71.5 78C71.5 76.6193 72.6193 75.5 74 75.5C75.3807 75.5 76.5 76.6193 76.5 78C76.5 79.3808 75.3807 80.5 74 80.5C72.6193 80.5 71.5 79.3808 71.5 78ZM74 72.5C70.9624 72.5 68.5 74.9625 68.5 78C68.5 81.0376 70.9624 83.5 74 83.5C77.0376 83.5 79.5 81.0376 79.5 78C79.5 74.9625 77.0376 72.5 74 72.5Z" fill="url(#paint3_linear_204_1142)"/>
<path d="M60.714 129.08C61.6087 129.271 62.3273 129.718 62.87 130.422C63.4127 131.111 63.684 131.903 63.684 132.798C63.684 134.089 63.2293 135.115 62.32 135.878C61.4253 136.626 60.1713 137 58.558 137H51.364V121.556H58.316C59.8853 121.556 61.11 121.915 61.99 122.634C62.8847 123.353 63.332 124.328 63.332 125.56C63.332 126.469 63.09 127.225 62.606 127.826C62.1367 128.427 61.506 128.845 60.714 129.08ZM55.126 127.804H57.59C58.206 127.804 58.6753 127.672 58.998 127.408C59.3353 127.129 59.504 126.726 59.504 126.198C59.504 125.67 59.3353 125.267 58.998 124.988C58.6753 124.709 58.206 124.57 57.59 124.57H55.126V127.804ZM57.898 133.964C58.5287 133.964 59.0127 133.825 59.35 133.546C59.702 133.253 59.878 132.835 59.878 132.292C59.878 131.749 59.6947 131.324 59.328 131.016C58.976 130.708 58.4847 130.554 57.854 130.554H55.126V133.964H57.898ZM77.438 130.664C77.438 131.016 77.416 131.383 77.372 131.764H68.858C68.9166 132.527 69.1586 133.113 69.584 133.524C70.024 133.92 70.5593 134.118 71.19 134.118C72.1286 134.118 72.7813 133.722 73.148 132.93H77.152C76.9466 133.737 76.5726 134.463 76.03 135.108C75.502 135.753 74.8346 136.259 74.028 136.626C73.2213 136.993 72.3193 137.176 71.322 137.176C70.1193 137.176 69.0486 136.919 68.11 136.406C67.1713 135.893 66.438 135.159 65.91 134.206C65.382 133.253 65.118 132.138 65.118 130.862C65.118 129.586 65.3746 128.471 65.888 127.518C66.416 126.565 67.1493 125.831 68.088 125.318C69.0266 124.805 70.1046 124.548 71.322 124.548C72.51 124.548 73.566 124.797 74.49 125.296C75.414 125.795 76.1326 126.506 76.646 127.43C77.174 128.354 77.438 129.432 77.438 130.664ZM73.588 129.674C73.588 129.029 73.368 128.515 72.928 128.134C72.488 127.753 71.938 127.562 71.278 127.562C70.6473 127.562 70.112 127.745 69.672 128.112C69.2466 128.479 68.9826 128.999 68.88 129.674H73.588ZM78.6746 130.84C78.6746 129.579 78.9093 128.471 79.3786 127.518C79.8626 126.565 80.5153 125.831 81.3366 125.318C82.1579 124.805 83.0746 124.548 84.0866 124.548C84.9519 124.548 85.7073 124.724 86.3526 125.076C87.0126 125.428 87.5186 125.89 87.8706 126.462V124.724H91.6326V137H87.8706V135.262C87.5039 135.834 86.9906 136.296 86.3306 136.648C85.6853 137 84.9299 137.176 84.0646 137.176C83.0673 137.176 82.1579 136.919 81.3366 136.406C80.5153 135.878 79.8626 135.137 79.3786 134.184C78.9093 133.216 78.6746 132.101 78.6746 130.84ZM87.8706 130.862C87.8706 129.923 87.6066 129.183 87.0786 128.64C86.5653 128.097 85.9346 127.826 85.1866 127.826C84.4386 127.826 83.8006 128.097 83.2726 128.64C82.7593 129.168 82.5026 129.901 82.5026 130.84C82.5026 131.779 82.7593 132.527 83.2726 133.084C83.8006 133.627 84.4386 133.898 85.1866 133.898C85.9346 133.898 86.5653 133.627 87.0786 133.084C87.6066 132.541 87.8706 131.801 87.8706 130.862ZM101.196 133.81V137H99.2822C97.9182 137 96.8549 136.67 96.0922 136.01C95.3296 135.335 94.9482 134.243 94.9482 132.732V127.848H93.4522V124.724H94.9482V121.732H98.7102V124.724H101.174V127.848H98.7102V132.776C98.7102 133.143 98.7982 133.407 98.9742 133.568C99.1502 133.729 99.4436 133.81 99.8542 133.81H101.196ZM112.906 134.272H107.142L106.218 137H102.28L107.868 121.556H112.224L117.812 137H113.83L112.906 134.272ZM111.938 131.368L110.024 125.714L108.132 131.368H111.938ZM123.274 121.556V137H119.512V121.556H123.274Z" fill="white"/>
<defs>
<filter id="filter0_d_204_1142" x="0" y="0" width="295" height="196" filterUnits="userSpaceOnUse" color-interpolation-filters="sRGB">
<feFlood flood-opacity="0" result="BackgroundImageFix"/>
<feColorMatrix in="SourceAlpha" type="matrix" values="0 0 0 0 0 0 0 0 0 0 0 0 0 0 0 0 0 0 127 0" result="hardAlpha"/>
<feOffset dy="4"/>
<feGaussianBlur stdDeviation="10"/>
<feComposite in2="hardAlpha" operator="out"/>
<feColorMatrix type="matrix" values="0 0 0 0 0 0 0 0 0 0 0 0 0 0 0 0 0 0 0.1 0"/>
<feBlend mode="normal" in2="BackgroundImageFix" result="effect1_dropShadow_204_1142"/>
<feBlend mode="normal" in="SourceGraphic" in2="effect1_dropShadow_204_1142" result="shape"/>
</filter>
<filter id="filter1_d_204_1142" x="41" y="32" width="88" height="88" filterUnits="userSpaceOnUse" color-interpolation-filters="sRGB">
<feFlood flood-opacity="0" result="BackgroundImageFix"/>
<feColorMatrix in="SourceAlpha" type="matrix" values="0 0 0 0 0 0 0 0 0 0 0 0 0 0 0 0 0 0 127 0" result="hardAlpha"/>
<feOffset dy="4"/>
<feGaussianBlur stdDeviation="10"/>
<feComposite in2="hardAlpha" operator="out"/>
<feColorMatrix type="matrix" values="0 0 0 0 0 0 0 0 0 0 0 0 0 0 0 0 0 0 0.1 0"/>
<feBlend mode="normal" in2="BackgroundImageFix" result="effect1_dropShadow_204_1142"/>
<feBlend mode="normal" in="SourceGraphic" in2="effect1_dropShadow_204_1142" result="shape"/>
</filter>
<linearGradient id="paint0_linear_204_1142" x1="147.5" y1="16" x2="147.5" y2="172" gradientUnits="userSpaceOnUse">
<stop stop-color="#250A61"/>
<stop offset="1" stop-color="#471C76"/>
</linearGradient>
<linearGradient id="paint1_linear_204_1142" x1="243.984" y1="36.5254" x2="235.809" y2="65.6156" gradientUnits="userSpaceOnUse">
<stop stop-color="#47B5F5"/>
<stop offset="1" stop-color="#DD47F5"/>
</linearGradient>
<linearGradient id="paint2_linear_204_1142" x1="85" y1="48" x2="85" y2="96" gradientUnits="userSpaceOnUse">
<stop stop-color="#2E0D77"/>
<stop offset="1" stop-color="#7130A1"/>
</linearGradient>
<linearGradient id="paint3_linear_204_1142" x1="63.5331" y1="52.8357" x2="102.032" y2="98.0433" gradientUnits="userSpaceOnUse">
<stop stop-color="#47B5F5"/>
<stop offset="1" stop-color="#DD47F5"/>
</linearGradient>
</defs>
</svg>
