<svg width="295" height="196" viewBox="0 0 295 196" fill="none" xmlns="http://www.w3.org/2000/svg">
<g filter="url(#filter0_d_204_1165)">
<rect x="20" y="16" width="255" height="156" rx="20" fill="url(#paint0_linear_204_1165)"/>
</g>
<path opacity="0.1" d="M243.098 116.24C245.466 116.24 247.498 116.656 249.194 117.488C250.89 118.288 252.17 119.408 253.034 120.848C253.93 122.256 254.378 123.856 254.378 125.648C254.378 127.856 253.802 129.632 252.65 130.976C251.53 132.32 250.122 133.168 248.426 133.52V133.76C252.81 135.168 255.002 137.904 255.002 141.968C255.002 143.92 254.554 145.664 253.658 147.2C252.762 148.704 251.45 149.888 249.722 150.752C248.026 151.584 245.978 152 243.578 152C239.674 152 236.57 151.04 234.266 149.12C231.994 147.2 230.762 144.272 230.57 140.336H238.586C238.65 141.84 239.066 143.024 239.834 143.888C240.602 144.752 241.722 145.184 243.194 145.184C244.378 145.184 245.306 144.832 245.978 144.128C246.682 143.424 247.034 142.512 247.034 141.392C247.034 138.608 245.018 137.216 240.986 137.216H239.45V130.544H240.938C244.554 130.608 246.362 129.312 246.362 126.656C246.362 125.504 246.042 124.624 245.402 124.016C244.794 123.376 243.962 123.056 242.906 123.056C241.754 123.056 240.842 123.456 240.17 124.256C239.498 125.024 239.114 126.064 239.018 127.376H231.002C231.162 123.792 232.282 121.04 234.362 119.12C236.442 117.2 239.354 116.24 243.098 116.24Z" fill="white"/>
<path opacity="0.3" fill-rule="evenodd" clip-rule="evenodd" d="M253.5 36C254.328 36 255 36.6716 255 37.5C255 38.3284 254.328 39 253.5 39H241.5C240.672 39 240 38.3284 240 37.5C240 36.6716 240.672 36 241.5 36H253.5ZM253.5 41.5C254.328 41.5 255 42.1716 255 43C255 43.8284 254.328 44.5 253.5 44.5H241.5C240.672 44.5 240 43.8284 240 43C240 42.1716 240.672 41.5 241.5 41.5H253.5ZM255 48.5C255 47.6716 254.328 47 253.5 47H241.5C240.672 47 240 47.6716 240 48.5C240 49.3284 240.672 50 241.5 50H253.5C254.328 50 255 49.3284 255 48.5ZM255 54C255 53.1716 254.328 52.5 253.5 52.5H241.5C240.672 52.5 240 53.1716 240 54C240 54.8284 240.672 55.5 241.5 55.5H253.5C254.328 55.5 255 54.8284 255 54ZM237.5 54C237.5 53.1716 236.828 52.5 236 52.5H224C223.172 52.5 222.5 53.1716 222.5 54C222.5 54.8284 223.172 55.5 224 55.5H236C236.828 55.5 237.5 54.8284 237.5 54ZM218.5 52.5C219.328 52.5 220 53.1716 220 54C220 54.8284 219.328 55.5 218.5 55.5H206.5C205.672 55.5 205 54.8284 205 54C205 53.1716 205.672 52.5 206.5 52.5H218.5ZM236 47C236.828 47 237.5 47.6716 237.5 48.5C237.5 49.3284 236.828 50 236 50H224C223.172 50 222.5 49.3284 222.5 48.5C222.5 47.6716 223.172 47 224 47H236ZM220 48.5C220 47.6716 219.328 47 218.5 47H206.5C205.672 47 205 47.6716 205 48.5C205 49.3284 205.672 50 206.5 50H218.5C219.328 50 220 49.3284 220 48.5ZM237.5 43C237.5 42.1716 236.828 41.5 236 41.5H224C223.172 41.5 222.5 42.1716 222.5 43C222.5 43.8284 223.172 44.5 224 44.5H236C236.828 44.5 237.5 43.8284 237.5 43Z" fill="url(#paint1_linear_204_1165)"/>
<g filter="url(#filter1_d_204_1165)">
<circle cx="78" cy="70" r="24" fill="url(#paint2_linear_204_1165)"/>
</g>
<path fill-rule="evenodd" clip-rule="evenodd" d="M84.8335 57C83.7289 57 82.8335 57.8954 82.8335 59C82.8335 60.1046 83.7289 61 84.8335 61C85.9381 61 86.8335 60.1046 86.8335 59C86.8335 57.8954 85.9381 57 84.8335 57ZM80.8335 59C80.8335 56.7909 82.6244 55 84.8335 55C87.0426 55 88.8335 56.7909 88.8335 59C88.8335 61.2091 87.0426 63 84.8335 63C82.6244 63 80.8335 61.2091 80.8335 59ZM75.8335 70C75.8335 67.2386 78.0721 65 80.8335 65H88.8335C91.5949 65 93.8335 67.2386 93.8335 70C93.8335 71.6569 92.4903 73 90.8335 73H78.8335C77.1766 73 75.8335 71.6569 75.8335 70ZM80.8335 67C79.1766 67 77.8335 68.3431 77.8335 70C77.8335 70.5523 78.2812 71 78.8335 71H90.8335C91.3858 71 91.8335 70.5523 91.8335 70C91.8335 68.3431 90.4903 67 88.8335 67H80.8335ZM64.8335 62.1666C62.9005 62.1666 61.3335 63.7336 61.3335 65.6666C61.3335 67.5996 62.9005 69.1666 64.8335 69.1666C66.7665 69.1666 68.3335 67.5996 68.3335 65.6666C68.3335 63.7336 66.7665 62.1666 64.8335 62.1666ZM58.3335 65.6666C58.3335 62.0768 61.2436 59.1666 64.8335 59.1666C68.4233 59.1666 71.3335 62.0768 71.3335 65.6666C71.3335 69.2565 68.4233 72.1666 64.8335 72.1666C61.2436 72.1666 58.3335 69.2565 58.3335 65.6666ZM50 81.3334C50 78.2958 52.4624 75.8334 55.5 75.8334H74.1667C77.2042 75.8334 79.6667 78.2958 79.6667 81.3334V85.3334C79.6667 87.2664 78.0997 88.8334 76.1667 88.8334H53.5C51.567 88.8334 50 87.2664 50 85.3334V81.3334ZM55.5 78.8334C54.1193 78.8334 53 79.9527 53 81.3334V85.3334C53 85.6095 53.2239 85.8334 53.5 85.8334H76.1667C76.4428 85.8334 76.6667 85.6095 76.6667 85.3334V81.3334C76.6667 79.9527 75.5474 78.8334 74.1667 78.8334H55.5Z" fill="url(#paint3_linear_204_1165)"/>
<path d="M60.714 129.08C61.6087 129.271 62.3273 129.718 62.87 130.422C63.4127 131.111 63.684 131.903 63.684 132.798C63.684 134.089 63.2293 135.115 62.32 135.878C61.4253 136.626 60.1713 137 58.558 137H51.364V121.556H58.316C59.8853 121.556 61.11 121.915 61.99 122.634C62.8847 123.353 63.332 124.328 63.332 125.56C63.332 126.469 63.09 127.225 62.606 127.826C62.1367 128.427 61.506 128.845 60.714 129.08ZM55.126 127.804H57.59C58.206 127.804 58.6753 127.672 58.998 127.408C59.3353 127.129 59.504 126.726 59.504 126.198C59.504 125.67 59.3353 125.267 58.998 124.988C58.6753 124.709 58.206 124.57 57.59 124.57H55.126V127.804ZM57.898 133.964C58.5287 133.964 59.0127 133.825 59.35 133.546C59.702 133.253 59.878 132.835 59.878 132.292C59.878 131.749 59.6947 131.324 59.328 131.016C58.976 130.708 58.4847 130.554 57.854 130.554H55.126V133.964H57.898ZM77.438 130.664C77.438 131.016 77.416 131.383 77.372 131.764H68.858C68.9166 132.527 69.1586 133.113 69.584 133.524C70.024 133.92 70.5593 134.118 71.19 134.118C72.1286 134.118 72.7813 133.722 73.148 132.93H77.152C76.9466 133.737 76.5726 134.463 76.03 135.108C75.502 135.753 74.8346 136.259 74.028 136.626C73.2213 136.993 72.3193 137.176 71.322 137.176C70.1193 137.176 69.0486 136.919 68.11 136.406C67.1713 135.893 66.438 135.159 65.91 134.206C65.382 133.253 65.118 132.138 65.118 130.862C65.118 129.586 65.3746 128.471 65.888 127.518C66.416 126.565 67.1493 125.831 68.088 125.318C69.0266 124.805 70.1046 124.548 71.322 124.548C72.51 124.548 73.566 124.797 74.49 125.296C75.414 125.795 76.1326 126.506 76.646 127.43C77.174 128.354 77.438 129.432 77.438 130.664ZM73.588 129.674C73.588 129.029 73.368 128.515 72.928 128.134C72.488 127.753 71.938 127.562 71.278 127.562C70.6473 127.562 70.112 127.745 69.672 128.112C69.2466 128.479 68.9826 128.999 68.88 129.674H73.588ZM78.6746 130.84C78.6746 129.579 78.9093 128.471 79.3786 127.518C79.8626 126.565 80.5153 125.831 81.3366 125.318C82.1579 124.805 83.0746 124.548 84.0866 124.548C84.9519 124.548 85.7073 124.724 86.3526 125.076C87.0126 125.428 87.5186 125.89 87.8706 126.462V124.724H91.6326V137H87.8706V135.262C87.5039 135.834 86.9906 136.296 86.3306 136.648C85.6853 137 84.9299 137.176 84.0646 137.176C83.0673 137.176 82.1579 136.919 81.3366 136.406C80.5153 135.878 79.8626 135.137 79.3786 134.184C78.9093 133.216 78.6746 132.101 78.6746 130.84ZM87.8706 130.862C87.8706 129.923 87.6066 129.183 87.0786 128.64C86.5653 128.097 85.9346 127.826 85.1866 127.826C84.4386 127.826 83.8006 128.097 83.2726 128.64C82.7593 129.168 82.5026 129.901 82.5026 130.84C82.5026 131.779 82.7593 132.527 83.2726 133.084C83.8006 133.627 84.4386 133.898 85.1866 133.898C85.9346 133.898 86.5653 133.627 87.0786 133.084C87.6066 132.541 87.8706 131.801 87.8706 130.862ZM101.196 133.81V137H99.2822C97.9182 137 96.8549 136.67 96.0922 136.01C95.3296 135.335 94.9482 134.243 94.9482 132.732V127.848H93.4522V124.724H94.9482V121.732H98.7102V124.724H101.174V127.848H98.7102V132.776C98.7102 133.143 98.7982 133.407 98.9742 133.568C99.1502 133.729 99.4436 133.81 99.8542 133.81H101.196ZM112.752 137L109.606 132.27L106.834 137H102.566L107.516 129.146L102.456 121.556H106.834L109.936 126.22L112.664 121.556H116.932L112.026 129.344L117.13 137H112.752Z" fill="white"/>
<defs>
<filter id="filter0_d_204_1165" x="0" y="0" width="295" height="196" filterUnits="userSpaceOnUse" color-interpolation-filters="sRGB">
<feFlood flood-opacity="0" result="BackgroundImageFix"/>
<feColorMatrix in="SourceAlpha" type="matrix" values="0 0 0 0 0 0 0 0 0 0 0 0 0 0 0 0 0 0 127 0" result="hardAlpha"/>
<feOffset dy="4"/>
<feGaussianBlur stdDeviation="10"/>
<feComposite in2="hardAlpha" operator="out"/>
<feColorMatrix type="matrix" values="0 0 0 0 0 0 0 0 0 0 0 0 0 0 0 0 0 0 0.1 0"/>
<feBlend mode="normal" in2="BackgroundImageFix" result="effect1_dropShadow_204_1165"/>
<feBlend mode="normal" in="SourceGraphic" in2="effect1_dropShadow_204_1165" result="shape"/>
</filter>
<filter id="filter1_d_204_1165" x="34" y="30" width="88" height="88" filterUnits="userSpaceOnUse" color-interpolation-filters="sRGB">
<feFlood flood-opacity="0" result="BackgroundImageFix"/>
<feColorMatrix in="SourceAlpha" type="matrix" values="0 0 0 0 0 0 0 0 0 0 0 0 0 0 0 0 0 0 127 0" result="hardAlpha"/>
<feOffset dy="4"/>
<feGaussianBlur stdDeviation="10"/>
<feComposite in2="hardAlpha" operator="out"/>
<feColorMatrix type="matrix" values="0 0 0 0 0 0 0 0 0 0 0 0 0 0 0 0 0 0 0.1 0"/>
<feBlend mode="normal" in2="BackgroundImageFix" result="effect1_dropShadow_204_1165"/>
<feBlend mode="normal" in="SourceGraphic" in2="effect1_dropShadow_204_1165" result="shape"/>
</filter>
<linearGradient id="paint0_linear_204_1165" x1="147.5" y1="16" x2="147.5" y2="172" gradientUnits="userSpaceOnUse">
<stop stop-color="#1B0F51"/>
<stop offset="1" stop-color="#33338F"/>
</linearGradient>
<linearGradient id="paint1_linear_204_1165" x1="243.984" y1="36.5254" x2="235.809" y2="65.6156" gradientUnits="userSpaceOnUse">
<stop stop-color="#47B5F5"/>
<stop offset="1" stop-color="#DD47F5"/>
</linearGradient>
<linearGradient id="paint2_linear_204_1165" x1="78" y1="46" x2="78" y2="94" gradientUnits="userSpaceOnUse">
<stop stop-color="#2E0D77"/>
<stop offset="1" stop-color="#7130A1"/>
</linearGradient>
<linearGradient id="paint3_linear_204_1165" x1="59.6574" y1="51.9762" x2="89.1991" y2="96.9186" gradientUnits="userSpaceOnUse">
<stop stop-color="#47B5F5"/>
<stop offset="1" stop-color="#DD47F5"/>
</linearGradient>
</defs>
</svg>
