<svg width="209" height="36" viewBox="0 0 209 36" fill="none" xmlns="http://www.w3.org/2000/svg">
<path d="M30.7875 21.5233C30.1606 21.907 29.4293 21.9767 28.872 21.6628C28.1755 21.2442 27.7575 20.3023 27.7575 19.0116V15.0698C27.7575 13.186 27.0262 11.8256 25.7724 11.4767C23.6479 10.8488 22.0458 13.4651 21.4538 14.4419L17.6924 20.4767V13.0465C17.6576 11.3372 17.1003 10.3256 16.0555 10.0116C15.3589 9.80233 14.3141 9.90698 13.3041 11.4419L4.91068 24.907C3.7962 22.7791 3.20413 20.407 3.20413 18C3.20413 9.87209 9.71688 3.27907 17.6924 3.27907C25.6679 3.27907 32.1806 9.87209 32.1806 18V18.0349V18.0698C32.2503 19.6395 31.7627 20.8954 30.7875 21.5233ZM35.3848 18V17.9651V17.9302C35.3499 8.05814 27.4093 0 17.6924 0C7.94068 0 0 8.05814 0 18C0 27.907 7.94068 36 17.6924 36C22.1851 36 26.4341 34.2907 29.7079 31.186C30.3696 30.5581 30.4044 29.5465 29.7775 28.8837C29.1855 28.2209 28.1755 28.186 27.5137 28.7791C27.5137 28.7791 27.5137 28.7791 27.4789 28.814C24.832 31.3256 21.2796 32.7558 17.6227 32.7558C13.3389 32.7558 9.50792 30.8721 6.86102 27.8721L14.4186 15.7326V21.3488C14.4186 24.0349 15.4634 24.907 16.3341 25.1512C17.2048 25.3953 18.5282 25.2209 19.9562 22.9535L24.1007 16.2209C24.24 16.0116 24.3444 15.8023 24.4838 15.6628V19.0814C24.4838 21.593 25.4938 23.6163 27.2351 24.593C28.8024 25.5 30.7875 25.3953 32.4244 24.3837C34.4444 23.0581 35.5241 20.7558 35.3848 18ZM60.0427 11.8605C60.4606 12.1046 60.8437 12.6977 60.8437 13.2209C60.8437 14.0581 60.1471 14.7558 59.3461 14.7558C59.1371 14.7558 58.963 14.686 58.7889 14.6512C57.8485 13.9535 56.6644 13.5 55.4106 13.5C52.4503 13.5 50.4303 15.907 50.4303 18.907C50.4303 21.907 52.4851 24.2791 55.4106 24.2791C56.8734 24.2791 58.1968 23.686 59.172 22.7442C59.4158 22.5698 59.7292 22.4651 60.0427 22.4651C60.8437 22.4651 61.4706 23.093 61.4706 23.8953C61.4706 24.4186 61.1571 24.8721 60.774 25.1163C59.3461 26.3372 57.4306 27.1395 55.4454 27.1395C50.9178 27.1395 47.2261 23.407 47.2261 18.8023C47.2261 14.1977 50.9178 10.4651 55.4454 10.4651C57.1171 10.4302 58.7192 10.9535 60.0427 11.8605ZM68.3316 15.3488C71.4313 15.3488 74.0085 17.9651 74.0085 21.2093C74.0085 24.4186 71.3964 27.1744 68.3316 27.1744C65.0927 27.1744 62.4109 24.4535 62.4109 21.2093C62.4109 17.9651 65.0927 15.3488 68.3316 15.3488ZM68.2968 24.2791C69.6551 24.2791 70.8044 22.9884 70.8044 21.2442C70.8044 19.5 69.6551 18.3837 68.2968 18.3837C66.834 18.3837 65.6151 19.4651 65.6151 21.2442C65.6151 22.9535 66.834 24.2791 68.2968 24.2791ZM75.9588 25.3605V17.1279C75.9588 16.2209 76.6554 15.4884 77.5609 15.4884C78.4316 15.4884 79.163 16.2209 79.163 17.1279V25.3605C79.163 26.2674 78.4316 27 77.5609 27C76.6902 27 75.9588 26.2326 75.9588 25.3605ZM75.7151 12.3837C75.7151 11.3023 76.5509 10.4651 77.5609 10.4651C78.6057 10.4651 79.4416 11.3372 79.4416 12.3837C79.4416 13.4302 78.6057 14.2674 77.5609 14.2674C76.5161 14.2326 75.7151 13.3953 75.7151 12.3837ZM85.2926 20.8953V25.3605C85.2926 26.2674 84.5612 27 83.6906 27C82.8199 27 82.0885 26.2674 82.0885 25.3605V16.7442C82.0885 16.0465 82.6457 15.4884 83.3423 15.4884C84.0388 15.4884 84.5612 16.0814 84.5612 16.7442C85.8499 15.5233 86.9992 15.3488 88.0788 15.3488C91.283 15.3488 92.7109 17.7558 92.7109 20.5116V25.3605C92.7109 26.2674 91.9795 27 91.1088 27C90.2381 27 89.5068 26.2674 89.5068 25.3605V20.8953C89.5068 19.5 89.3326 18.314 87.3126 18.314C85.8847 18.314 85.2926 19.5 85.2926 20.8953ZM103.089 22.6047C102.706 22.6047 102.463 22.4302 102.254 22.186L98.5271 18.1395V25.3605C98.5271 26.2674 97.7957 27 96.925 27C96.0543 27 95.3229 26.2674 95.3229 25.3605V11.0581C95.4274 10.814 95.6712 10.6395 95.915 10.6395C96.1936 10.6395 96.4374 10.8837 96.6116 11.0581L102.567 17.7558C102.741 17.9651 102.95 18.0698 103.089 18.0698C103.194 18.0698 103.438 17.9651 103.612 17.7558L109.567 11.0581C109.742 10.8837 109.951 10.6395 110.264 10.6395C110.543 10.6395 110.786 10.814 110.856 11.0581V25.3605C110.856 26.2674 110.159 27 109.254 27C108.383 27 107.652 26.2674 107.652 25.3605V18.1395L103.925 22.186C103.647 22.4302 103.403 22.6047 103.089 22.6047ZM118.483 24.2791C119.911 24.2791 121.13 22.9884 121.13 21.2442C121.13 19.5 119.876 18.3488 118.483 18.3488C117.09 18.3488 115.941 19.5349 115.941 21.2442C115.941 22.9186 117.055 24.2791 118.483 24.2791ZM121.896 25.7442L121.827 25.3605C121.2 26.5814 119.215 27.1395 117.961 27.1395C114.966 27.1395 112.737 24.4186 112.737 21.1744C112.737 17.9651 115 15.3139 118.135 15.3139C118.657 15.3139 120.468 15.4535 121.862 17.093L121.931 16.7093C121.931 16.0116 122.454 15.4535 123.15 15.4535C123.847 15.4535 124.404 16.0465 124.404 16.7093V25.7093C124.404 26.407 123.847 26.9651 123.15 26.9651C122.419 27 121.896 26.407 121.896 25.7442ZM133.215 18.314H132.867C130.847 18.4186 130.464 19.5698 130.464 20.8953V25.3605C130.464 26.2674 129.733 27 128.862 27C127.991 27 127.26 26.2674 127.26 25.3605V16.7442C127.26 16.0465 127.817 15.4884 128.514 15.4884C129.21 15.4884 129.733 16.0814 129.733 16.7442C130.917 15.6279 131.892 15.3837 132.867 15.3488H133.18C133.947 15.3488 134.643 16.0116 134.643 16.8488C134.678 17.6163 133.982 18.314 133.215 18.314ZM145.579 24.593C145.718 24.8372 145.823 25.0814 145.823 25.3605C145.823 26.1977 145.057 26.9651 144.221 26.9651C143.664 26.9651 143.176 26.5465 142.793 26.0581L139.101 21.7674V25.3256C139.101 26.2326 138.37 26.9651 137.499 26.9651C136.628 26.9651 135.897 26.2326 135.897 25.3256V12.2442C135.897 11.3372 136.594 10.6046 137.499 10.6046C138.405 10.6046 139.101 11.3372 139.101 12.2442V20.407L142.793 16.3256C143.176 15.907 143.629 15.4535 144.186 15.4535C144.987 15.4535 145.718 16.1861 145.718 17.0233C145.718 17.2674 145.649 17.5465 145.509 17.7558L142.584 20.9651L145.579 24.593ZM151.848 18.3488C150.977 18.3488 149.549 18.8023 149.549 20.1628H154.181C154.147 18.8023 152.684 18.3488 151.848 18.3488ZM156.027 22.2209H149.549C149.549 24.1395 151.395 24.4535 152.196 24.4535C152.788 24.4535 153.624 24.3488 154.286 24.0349C154.495 23.8953 154.808 23.7907 155.122 23.7907C155.818 23.7907 156.41 24.3837 156.41 25.1163C156.41 25.6046 156.097 26.0233 155.714 26.2674C154.739 27 153.45 27.1744 152.231 27.1744C148.992 27.1744 146.31 25.4302 146.31 21.3488C146.31 18.1395 147.947 15.3488 151.778 15.3488C154.878 15.3488 157.211 17.3721 157.281 20.9651C157.281 21.6279 156.724 22.2209 156.027 22.2209ZM164.943 27.1395H164.072C161.635 27.1395 160.207 26.0581 160.207 22.2558V18.314H159.371C158.605 18.314 157.943 17.6163 157.943 16.8488C157.943 16.0116 158.639 15.3488 159.371 15.3488H160.207V12.314C160.207 11.407 160.903 10.6744 161.809 10.6744C162.679 10.6744 163.411 11.407 163.411 12.314V15.3488H164.734C165.5 15.3488 166.162 16.0116 166.162 16.8488C166.162 17.6163 165.466 18.314 164.734 18.314H163.411V21.6279C163.411 23.8256 163.515 24.2791 164.49 24.2791H164.943C165.709 24.2791 166.371 24.907 166.371 25.7093C166.371 26.4767 165.709 27.1395 164.943 27.1395ZM180.441 11.8605C180.859 12.1046 181.242 12.6977 181.242 13.2209C181.242 14.0581 180.546 14.7558 179.745 14.7558C179.536 14.7558 179.362 14.686 179.188 14.6512C178.247 13.9535 177.063 13.5 175.809 13.5C172.849 13.5 170.829 15.907 170.829 18.907C170.829 21.907 172.884 24.2791 175.809 24.2791C177.272 24.2791 178.596 23.686 179.571 22.7442C179.815 22.5698 180.128 22.4651 180.441 22.4651C181.242 22.4651 181.869 23.093 181.869 23.8953C181.869 24.4186 181.556 24.8721 181.173 25.1163C179.745 26.3372 177.829 27.1395 175.844 27.1395C171.317 27.1395 167.625 23.407 167.625 18.8023C167.625 14.1977 171.317 10.4651 175.844 10.4651C177.516 10.4302 179.153 10.9535 180.441 11.8605ZM188.556 24.2791C189.984 24.2791 191.203 22.9884 191.203 21.2442C191.203 19.5 189.949 18.3488 188.556 18.3488C187.128 18.3488 186.014 19.5349 186.014 21.2442C186.014 22.9186 187.163 24.2791 188.556 24.2791ZM191.969 25.7442L191.9 25.3605C191.273 26.5814 189.288 27.1395 188.034 27.1395C185.039 27.1395 182.81 24.4186 182.81 21.1744C182.81 17.9651 185.073 15.3139 188.208 15.3139C188.73 15.3139 190.541 15.4535 191.935 17.093L192.004 16.7093C192.004 16.0116 192.527 15.4535 193.223 15.4535C193.92 15.4535 194.477 16.0465 194.477 16.7093V25.7093C194.477 26.407 193.92 26.9651 193.223 26.9651C192.492 27 191.969 26.407 191.969 25.7442ZM203.219 24.2791C204.647 24.2791 205.761 22.9186 205.761 21.2442C205.761 19.5 204.612 18.3488 203.219 18.3488C201.791 18.3488 200.572 19.5 200.572 21.2442C200.572 22.9884 201.791 24.2791 203.219 24.2791ZM200.572 26.1977V30.2791C200.572 31.186 199.84 31.9186 198.97 31.9186C198.099 31.9186 197.368 31.186 197.368 30.2791V16.7442C197.368 16.0465 197.925 15.4884 198.621 15.4884C199.318 15.4884 199.84 16.0814 199.84 16.8837C201.025 15.6628 202.487 15.3488 203.602 15.3488C206.701 15.3488 209 17.9651 209 21.2093C209 24.4186 206.806 27.1744 203.776 27.1744C202.836 27.1395 201.442 26.8605 200.572 26.1977Z" fill="white"/>
</svg>
