<svg width="188" height="53" viewBox="0 0 188 53" fill="none" xmlns="http://www.w3.org/2000/svg">
<path d="M181.008 52.4758H7.27593C3.45557 52.4758 0.32666 49.5427 0.32666 45.9613V6.87435C0.32666 3.293 3.45557 0.35985 7.27593 0.35985H181.008C184.828 0.35985 187.957 3.293 187.957 6.87435V45.9613C187.957 49.5427 184.828 52.4758 181.008 52.4758Z" fill="black"/>
<path d="M181.008 1.4038C184.225 1.4038 186.843 3.85813 186.843 6.87435V45.9613C186.843 48.9775 184.225 51.4319 181.008 51.4319H7.27593C4.05842 51.4319 1.44028 48.9775 1.44028 45.9613V6.87435C1.44028 3.85813 4.05842 1.4038 7.27593 1.4038H181.008ZM181.008 0.35985H7.27593C3.45557 0.35985 0.32666 3.293 0.32666 6.87435V45.9613C0.32666 49.5427 3.45557 52.4758 7.27593 52.4758H181.008C184.828 52.4758 187.957 49.5427 187.957 45.9613V6.87435C187.957 3.293 184.828 0.35985 181.008 0.35985Z" fill="black"/>
<path d="M66.2302 13.7062C66.2302 14.7942 65.8828 15.6655 65.1983 16.3153C64.4113 17.0856 63.3863 17.4733 62.1302 17.4733C60.9297 17.4733 59.9047 17.0791 59.0638 16.3023C58.2212 15.514 57.8008 14.5466 57.8008 13.3887C57.8008 12.2307 58.2212 11.2633 59.0638 10.4816C59.9047 9.69821 60.9297 9.30408 62.1302 9.30408C62.7278 9.30408 63.2976 9.41971 63.8414 9.63469C64.3835 9.85129 64.8247 10.1444 65.1444 10.506L64.4182 11.1933C63.8605 10.576 63.1013 10.2715 62.1302 10.2715C61.2546 10.2715 60.4954 10.5581 59.8508 11.1363C59.2132 11.7161 58.8935 12.4669 58.8935 13.3887C58.8935 14.3105 59.2132 15.0678 59.8508 15.6476C60.4954 16.2192 61.2546 16.5124 62.1302 16.5124C63.0596 16.5124 63.8414 16.2192 64.4582 15.6411C64.8647 15.2583 65.0958 14.7307 65.1566 14.0564H62.1302V13.1151H66.1677C66.2163 13.3186 66.2302 13.5157 66.2302 13.7062Z" fill="white" stroke="white" stroke-width="0.16" stroke-miterlimit="10"/>
<path d="M72.6358 10.4424H68.8432V12.9179H72.2622V13.8593H68.8432V16.3348H72.6358V17.294H67.7695V9.48315H72.6358V10.4424Z" fill="white" stroke="white" stroke-width="0.16" stroke-miterlimit="10"/>
<path d="M77.1563 17.294H76.0826V10.4424H73.7563V9.48315H79.4843V10.4424H77.1563V17.294Z" fill="white" stroke="white" stroke-width="0.16" stroke-miterlimit="10"/>
<path d="M83.6294 17.294V9.48315H84.7013V17.294H83.6294Z" fill="white" stroke="white" stroke-width="0.16" stroke-miterlimit="10"/>
<path d="M89.4527 17.294H88.3877V10.4424H86.0527V9.48315H91.7876V10.4424H89.4527V17.294Z" fill="white" stroke="white" stroke-width="0.16" stroke-miterlimit="10"/>
<path d="M102.632 16.2892C101.81 17.0791 100.792 17.4733 99.5775 17.4733C98.3562 17.4733 97.3381 17.0791 96.5164 16.2892C95.6964 15.501 95.2881 14.5336 95.2881 13.3887C95.2881 12.2437 95.6964 11.2763 96.5164 10.4881C97.3381 9.6982 98.3562 9.30408 99.5775 9.30408C100.785 9.30408 101.803 9.6982 102.625 10.4946C103.452 11.2894 103.86 12.2503 103.86 13.3887C103.86 14.5336 103.452 15.501 102.632 16.2892ZM97.3103 15.6345C97.9288 16.2192 98.6811 16.5124 99.5775 16.5124C100.467 16.5124 101.226 16.2192 101.838 15.6345C102.455 15.0499 102.767 14.2991 102.767 13.3887C102.767 12.4783 102.455 11.7275 101.838 11.1428C101.226 10.5581 100.467 10.265 99.5775 10.265C98.6811 10.265 97.9288 10.5581 97.3103 11.1428C96.6936 11.7275 96.3809 12.4783 96.3809 13.3887C96.3809 14.2991 96.6936 15.0499 97.3103 15.6345Z" fill="white" stroke="white" stroke-width="0.16" stroke-miterlimit="10"/>
<path d="M105.367 17.294V9.48315H106.67L110.721 15.5579H110.768L110.721 14.0563V9.48315H111.793V17.294H110.674L106.432 10.9196H106.385L106.432 12.4277V17.294H105.367Z" fill="white" stroke="white" stroke-width="0.16" stroke-miterlimit="10"/>
<path d="M95.0243 28.7012C91.7598 28.7012 89.0931 31.0301 89.0931 34.2434C89.0931 37.4306 91.7598 39.784 95.0243 39.784C98.2956 39.784 100.962 37.4306 100.962 34.2434C100.962 31.0301 98.2956 28.7012 95.0243 28.7012ZM95.0243 37.6016C93.2331 37.6016 91.6921 36.2156 91.6921 34.2434C91.6921 32.2451 93.2331 30.8835 95.0243 30.8835C96.8154 30.8835 98.3634 32.2451 98.3634 34.2434C98.3634 36.2156 96.8154 37.6016 95.0243 37.6016ZM82.083 28.7012C78.8116 28.7012 76.1518 31.0301 76.1518 34.2434C76.1518 37.4306 78.8116 39.784 82.083 39.784C85.3526 39.784 88.0142 37.4306 88.0142 34.2434C88.0142 31.0301 85.3526 28.7012 82.083 28.7012ZM82.083 37.6016C80.2901 37.6016 78.7439 36.2156 78.7439 34.2434C78.7439 32.2451 80.2901 30.8835 82.083 30.8835C83.8742 30.8835 85.4152 32.2451 85.4152 34.2434C85.4152 36.2156 83.8742 37.6016 82.083 37.6016ZM66.6834 30.3998V32.7548H72.6824C72.5069 34.0707 72.0378 35.0381 71.3186 35.7124C70.443 36.5267 69.0792 37.4306 66.6834 37.4306C62.9916 37.4306 60.1007 34.6375 60.1007 31.1767C60.1007 27.7158 62.9916 24.9228 66.6834 24.9228C68.6796 24.9228 70.132 25.654 71.2039 26.6019L72.9743 24.9423C71.475 23.6003 69.4805 22.5694 66.6834 22.5694C61.6209 22.5694 57.3662 26.4309 57.3662 31.1767C57.3662 35.9225 61.6209 39.784 66.6834 39.784C69.4197 39.784 71.475 38.9436 73.0907 37.3671C74.7463 35.815 75.2623 33.6326 75.2623 31.8705C75.2623 31.3232 75.2137 30.82 75.1268 30.3998H66.6834ZM129.654 32.2255C129.166 30.9861 127.66 28.7012 124.592 28.7012C121.551 28.7012 119.02 30.947 119.02 34.2434C119.02 37.3475 121.525 39.784 124.884 39.784C127.599 39.784 129.166 38.2319 129.811 37.328L127.795 36.0691C127.123 36.9909 126.207 37.6016 124.884 37.6016C123.568 37.6016 122.625 37.0365 122.02 35.9225L129.927 32.8558L129.654 32.2255ZM121.593 34.0707C121.525 31.934 123.363 30.8395 124.68 30.8395C125.712 30.8395 126.588 31.3233 126.88 32.0154L121.593 34.0707ZM115.167 39.4468H117.766V23.1606H115.167V39.4468ZM110.91 29.9357H110.823C110.24 29.2875 109.126 28.7012 107.715 28.7012C104.755 28.7012 102.048 31.1376 102.048 34.2613C102.048 37.3671 104.755 39.784 107.715 39.784C109.126 39.784 110.24 39.1928 110.823 38.525H110.91V39.3198C110.91 41.4386 109.703 42.577 107.755 42.577C106.167 42.577 105.182 41.5022 104.776 40.5983L102.516 41.4826C103.167 42.9516 104.892 44.7594 107.755 44.7594C110.803 44.7594 113.374 43.0787 113.374 38.9892V29.0383H110.91V29.9357ZM107.938 37.6016C106.147 37.6016 104.647 36.1961 104.647 34.2613C104.647 32.3086 106.147 30.8835 107.938 30.8835C109.703 30.8835 111.094 32.3086 111.094 34.2613C111.094 36.1961 109.703 37.6016 107.938 37.6016ZM141.822 23.1606H135.606V39.4468H138.198V33.276H141.822C144.701 33.276 147.524 31.3232 147.524 28.2175C147.524 25.1133 144.694 23.1606 141.822 23.1606ZM141.89 31.0106H138.198V25.426H141.89C143.825 25.426 144.93 26.9325 144.93 28.2175C144.93 29.478 143.825 31.0106 141.89 31.0106ZM157.913 28.6702C156.041 28.6702 154.093 29.4454 153.292 31.1636L155.592 32.0675C156.087 31.1636 156.998 30.8705 157.96 30.8705C159.305 30.8705 160.669 31.6278 160.69 32.9649V33.1359C160.221 32.8818 159.216 32.5056 157.981 32.5056C155.504 32.5056 152.979 33.7841 152.979 36.17C152.979 38.3524 155.009 39.7579 157.29 39.7579C159.034 39.7579 159.996 39.0201 160.601 38.1618H160.69V39.4208H163.193V33.1734C163.193 30.2858 160.893 28.6702 157.913 28.6702ZM157.601 37.5951C156.753 37.5951 155.571 37.201 155.571 36.2156C155.571 34.9551 157.045 34.4714 158.32 34.4714C159.461 34.4714 159.996 34.7075 160.69 35.0186C160.486 36.5267 159.102 37.5951 157.601 37.5951ZM172.314 29.0269L169.334 36.087H169.246L166.166 29.0269H163.37L167.998 38.8931L165.358 44.3832H168.066L175.198 29.0269H172.314ZM148.949 39.4468H151.548V23.1606H148.949V39.4468Z" fill="white"/>
<path d="M14.8301 10.1822C14.4218 10.5828 14.1855 11.2066 14.1855 12.0144V40.828C14.1855 41.6358 14.4218 42.2596 14.8301 42.6602L14.9309 42.7482L32.1546 26.6085V26.2274L14.9309 10.0877L14.8301 10.1822Z" fill="url(#paint0_linear_204_1092)"/>
<path d="M37.8892 31.9908L32.1543 26.6082V26.2271L37.8961 20.8445L38.0247 20.9146L44.8245 24.5415C46.7651 25.5708 46.7651 27.2646 44.8245 28.3004L38.0247 31.9208L37.8892 31.9908Z" fill="url(#paint1_linear_204_1092)"/>
<path d="M38.0245 31.9209L32.1541 26.4178L14.8296 42.66C15.4741 43.2952 16.5252 43.3717 17.7205 42.7366L38.0245 31.9209Z" fill="url(#paint2_linear_204_1092)"/>
<path d="M38.0245 20.9147L17.7205 10.099C16.5252 9.47038 15.4741 9.54693 14.8296 10.1821L32.1541 26.4178L38.0245 20.9147Z" fill="url(#paint3_linear_204_1092)"/>
<defs>
<linearGradient id="paint0_linear_204_1092" x1="30.6253" y1="41.1281" x2="8.80512" y2="17.8516" gradientUnits="userSpaceOnUse">
<stop stop-color="#00A0FF"/>
<stop offset="0.0066" stop-color="#00A1FF"/>
<stop offset="0.2601" stop-color="#00BEFF"/>
<stop offset="0.5122" stop-color="#00D2FF"/>
<stop offset="0.7604" stop-color="#00DFFF"/>
<stop offset="1" stop-color="#00E3FF"/>
</linearGradient>
<linearGradient id="paint1_linear_204_1092" x1="47.3515" y1="26.4159" x2="13.7214" y2="26.4159" gradientUnits="userSpaceOnUse">
<stop stop-color="#FFE000"/>
<stop offset="0.4087" stop-color="#FFBD00"/>
<stop offset="0.7754" stop-color="#FFA500"/>
<stop offset="1" stop-color="#FF9C00"/>
</linearGradient>
<linearGradient id="paint2_linear_204_1092" x1="34.8324" y1="23.4262" x2="5.24235" y2="-8.13863" gradientUnits="userSpaceOnUse">
<stop stop-color="#FF3A44"/>
<stop offset="1" stop-color="#C31162"/>
</linearGradient>
<linearGradient id="paint3_linear_204_1092" x1="10.4686" y1="52.2463" x2="23.6819" y2="38.1513" gradientUnits="userSpaceOnUse">
<stop stop-color="#32A071"/>
<stop offset="0.0685" stop-color="#2DA771"/>
<stop offset="0.4762" stop-color="#15CF74"/>
<stop offset="0.8009" stop-color="#06E775"/>
<stop offset="1" stop-color="#00F076"/>
</linearGradient>
</defs>
</svg>
