<svg width="72" height="72" viewBox="0 0 72 72" fill="none" xmlns="http://www.w3.org/2000/svg">
<g filter="url(#filter0_d_204_1263)">
<circle cx="36" cy="32" r="16" fill="url(#paint0_linear_204_1263)"/>
</g>
<path fill-rule="evenodd" clip-rule="evenodd" d="M41 24.5C41 22.0147 43.0147 20 45.5 20C47.9853 20 50 22.0147 50 24.5C50 26.9853 47.9853 29 45.5 29C43.0147 29 41 26.9853 41 24.5ZM45.5 17C41.3579 17 38 20.3579 38 24.5C38 28.6421 41.3579 32 45.5 32C49.6421 32 53 28.6421 53 24.5C53 20.3579 49.6421 17 45.5 17ZM55 46.5C55 45.1193 56.1193 44 57.5 44C58.8807 44 60 45.1193 60 46.5C60 47.8807 58.8807 49 57.5 49C56.1193 49 55 47.8807 55 46.5ZM60 41.5997C59.2499 41.2163 58.4002 41 57.5 41C54.4624 41 52 43.4624 52 46.5C52 49.5376 54.4624 52 57.5 52C60.5376 52 63 49.5376 63 46.5V36.1213L64.4393 37.5607C65.0251 38.1464 65.9749 38.1464 66.5607 37.5607C67.1464 36.9749 67.1464 36.0251 66.5607 35.4393L62.5607 31.4393C62.1317 31.0103 61.4865 30.882 60.926 31.1142C60.3655 31.3464 60 31.8933 60 32.5V41.5997ZM28 46.5C28 41.2533 32.2533 37 37.5 37H48.5556C49.384 37 50.0556 37.6716 50.0556 38.5C50.0556 39.3284 49.384 40 48.5556 40H37.5C33.9101 40 31 42.9101 31 46.5C31 47.8807 32.1193 49 33.5 49H46.1828C47.0112 49 47.6828 49.6716 47.6828 50.5C47.6828 51.3284 47.0112 52 46.1828 52H33.5C30.4624 52 28 49.5376 28 46.5Z" fill="url(#paint1_linear_204_1263)"/>
<defs>
<filter id="filter0_d_204_1263" x="0" y="0" width="72" height="72" filterUnits="userSpaceOnUse" color-interpolation-filters="sRGB">
<feFlood flood-opacity="0" result="BackgroundImageFix"/>
<feColorMatrix in="SourceAlpha" type="matrix" values="0 0 0 0 0 0 0 0 0 0 0 0 0 0 0 0 0 0 127 0" result="hardAlpha"/>
<feOffset dy="4"/>
<feGaussianBlur stdDeviation="10"/>
<feComposite in2="hardAlpha" operator="out"/>
<feColorMatrix type="matrix" values="0 0 0 0 0 0 0 0 0 0 0 0 0 0 0 0 0 0 0.1 0"/>
<feBlend mode="normal" in2="BackgroundImageFix" result="effect1_dropShadow_204_1263"/>
<feBlend mode="normal" in="SourceGraphic" in2="effect1_dropShadow_204_1263" result="shape"/>
</filter>
<linearGradient id="paint0_linear_204_1263" x1="36" y1="16" x2="36" y2="48" gradientUnits="userSpaceOnUse">
<stop stop-color="#2E0D77"/>
<stop offset="1" stop-color="#7130A1"/>
</linearGradient>
<linearGradient id="paint1_linear_204_1263" x1="36.5925" y1="13.872" x2="68.7147" y2="55.9022" gradientUnits="userSpaceOnUse">
<stop stop-color="#47B5F5"/>
<stop offset="1" stop-color="#DD47F5"/>
</linearGradient>
</defs>
</svg>
