<svg width="72" height="72" viewBox="0 0 72 72" fill="none" xmlns="http://www.w3.org/2000/svg">
<g filter="url(#filter0_d_204_1274)">
<circle cx="36" cy="32" r="16" fill="url(#paint0_linear_204_1274)"/>
</g>
<path fill-rule="evenodd" clip-rule="evenodd" d="M13.2113 36.6673C12.6255 37.253 12.6255 38.2028 13.2113 38.7886C20.8265 46.4038 33.1732 46.4038 40.7885 38.7886C48.4037 31.1734 48.4037 18.8266 40.7885 11.2114C33.1732 3.59619 20.8265 3.59619 13.2113 11.2114C9.40173 15.021 7.49764 20.0178 7.49989 25.0089V25.0096L7.49989 25.3786L6.06066 23.9393C5.47488 23.3535 4.52513 23.3535 3.93934 23.9393C3.35355 24.5251 3.35355 25.4749 3.93934 26.0607L7.92706 30.0484C8.1994 30.327 8.57942 30.5 8.99984 30.5C9.33856 30.5 9.65106 30.3877 9.90216 30.1984C9.95783 30.1565 10.0108 30.1105 10.0607 30.0607L14.0607 26.0607C14.6464 25.4749 14.6464 24.5251 14.0607 23.9393C13.4749 23.3536 12.5251 23.3536 11.9393 23.9393L10.4999 25.3788L10.4999 25.0089V25.0081C10.4978 20.7804 12.1084 16.5569 15.3326 13.3327C21.7763 6.88909 32.2235 6.88909 38.6672 13.3327C45.1108 19.7764 45.1108 30.2236 38.6672 36.6673C32.2235 43.1109 21.7763 43.1109 15.3326 36.6673C14.7468 36.0815 13.7971 36.0815 13.2113 36.6673ZM23.5 17C23.5 16.1716 24.1716 15.5 25 15.5C25.8284 15.5 26.5 16.1716 26.5 17V25.5H35C35.8284 25.5 36.5 26.1716 36.5 27C36.5 27.8284 35.8284 28.5 35 28.5H25C24.1716 28.5 23.5 27.8284 23.5 27V17Z" fill="url(#paint1_linear_204_1274)"/>
<defs>
<filter id="filter0_d_204_1274" x="0" y="0" width="72" height="72" filterUnits="userSpaceOnUse" color-interpolation-filters="sRGB">
<feFlood flood-opacity="0" result="BackgroundImageFix"/>
<feColorMatrix in="SourceAlpha" type="matrix" values="0 0 0 0 0 0 0 0 0 0 0 0 0 0 0 0 0 0 127 0" result="hardAlpha"/>
<feOffset dy="4"/>
<feGaussianBlur stdDeviation="10"/>
<feComposite in2="hardAlpha" operator="out"/>
<feColorMatrix type="matrix" values="0 0 0 0 0 0 0 0 0 0 0 0 0 0 0 0 0 0 0.1 0"/>
<feBlend mode="normal" in2="BackgroundImageFix" result="effect1_dropShadow_204_1274"/>
<feBlend mode="normal" in="SourceGraphic" in2="effect1_dropShadow_204_1274" result="shape"/>
</filter>
<linearGradient id="paint0_linear_204_1274" x1="36" y1="16" x2="36" y2="48" gradientUnits="userSpaceOnUse">
<stop stop-color="#2E0D77"/>
<stop offset="1" stop-color="#7130A1"/>
</linearGradient>
<linearGradient id="paint1_linear_204_1274" x1="12.9737" y1="2.01448" x2="48.8648" y2="48.4818" gradientUnits="userSpaceOnUse">
<stop stop-color="#47B5F5"/>
<stop offset="1" stop-color="#DD47F5"/>
</linearGradient>
</defs>
</svg>
