<svg width="24" height="24" viewBox="0 0 24 24" fill="none" xmlns="http://www.w3.org/2000/svg">
<path d="M0.000488281 12C0.000488281 5.37258 5.37307 0 12.0005 0C18.6279 0 24.0005 5.37258 24.0005 12C24.0005 18.6274 18.6279 24 12.0005 24C5.37307 24 0.000488281 18.6274 0.000488281 12Z" fill="#47B5F5"/>
<path d="M8.48069 9.93848H5.76123V18.1093H8.48069V9.93848Z" fill="white"/>
<path d="M8.65997 7.41135C8.64232 6.6102 8.06941 6 7.1391 6C6.20879 6 5.60059 6.6102 5.60059 7.41135C5.60059 8.1959 6.19081 8.82367 7.1038 8.82367H7.12118C8.06941 8.82367 8.65997 8.1959 8.65997 7.41135Z" fill="white"/>
<path d="M18.2885 13.4249C18.2885 10.9151 16.9469 9.74707 15.1573 9.74707C13.7135 9.74707 13.0671 10.5401 12.7061 11.0965V9.93915H9.98633C10.0222 10.7059 9.98633 18.11 9.98633 18.11H12.7061V13.5467C12.7061 13.3025 12.7238 13.0589 12.7957 12.8841C12.9922 12.3962 13.4397 11.8911 14.191 11.8911C15.1755 11.8911 15.569 12.6404 15.569 13.7384V18.1098H18.2884L18.2885 13.4249Z" fill="white"/>
</svg>
