<svg width="770" height="354" viewBox="0 0 770 354" fill="none" xmlns="http://www.w3.org/2000/svg">
<mask id="mask0_204_494" style="mask-type:alpha" maskUnits="userSpaceOnUse" x="20" y="16" width="730" height="314">
<rect x="20" y="16.0001" width="730" height="314" rx="20" fill="url(#paint0_linear_204_494)"/>
</mask>
<g mask="url(#mask0_204_494)">
<path opacity="0.3" fill-rule="evenodd" clip-rule="evenodd" d="M1056.55 -236.747L1055.12 -239.469C1030.92 -285.499 993.247 -319.132 948.234 -334.901C897.784 -352.023 842.303 -345.512 787.545 -315.491C762.609 -302.052 733.141 -286.931 701.801 -270.85C696.82 -268.294 691.792 -265.714 686.727 -263.112L684.354 -261.897C549.111 -192.642 369.214 -100.52 227.488 20.4644C368.709 -99.674 548.03 -191.301 685.708 -261.65L687.118 -262.37C724.181 -281.092 759.166 -298.926 787.936 -314.748C909.119 -380.954 1010.45 -322.38 1054.16 -239.23L1055.59 -236.508C1110.26 -129.164 1088.72 33.4676 918.025 145.372C984.314 98.8098 1030.16 40.4255 1051.54 -25.0685C1072.33 -89.2705 1067.93 -158.499 1039.37 -214.914L1037.94 -217.636C1014.66 -261.933 978.316 -294.405 935.18 -308.681C887.051 -325.54 833.762 -319.014 780.953 -290.13C756.272 -276.59 726.863 -261.577 695.561 -245.599C691.788 -243.673 687.987 -241.732 684.163 -239.779L681.833 -238.588C548.363 -170.381 369.098 -78.7717 231.316 42.6021C221.324 51.3758 211.551 60.3038 202.028 69.3889C196.084 74.899 190.266 80.5799 184.756 86.325C190.413 80.6199 196.173 74.9747 202.028 69.3889C202.925 68.5575 203.825 67.73 204.727 66.9067C213.394 58.6755 222.266 50.5746 231.316 42.6021C368.969 -78.2679 548.111 -169.851 684.423 -239.284C688.25 -241.239 692.054 -243.181 695.83 -245.109L695.832 -245.109C727.13 -261.086 756.535 -276.096 781.213 -289.635C897.533 -353.326 994.811 -296.919 1036.83 -216.987L1038.13 -214.512C1091.3 -109.972 1069.38 49.2102 898.892 156.829C965.874 111.549 1012.32 54.0057 1033.49 -11.1332C1053.52 -72.63 1049.19 -138.984 1021.79 -193.173L1020.36 -195.895C998.117 -238.213 963.522 -269.441 922.835 -283.207C876.597 -299.231 825.365 -292.936 774.781 -265.351C748.236 -250.827 716.163 -234.37 682.013 -217.024C621.128 -185.95 550.254 -149.75 478.359 -107.78C388.721 -55.468 297.518 5.79673 222.202 77.2348C217.742 81.4708 213.365 85.7177 209.072 89.9754C75.597 222.232 24.7996 359.678 54.4405 508.887C58.442 529.568 63.982 550.391 71.0541 571.329C71.0723 571.364 71.1583 571.556 71.3115 571.899L71.3125 571.901L71.3126 571.901C74.441 578.898 105.458 648.268 158.66 715.853C191.333 757.259 226.022 790.049 261.669 812.902C306.19 841.57 352.37 854.717 398.984 852.088C443.26 849.853 478.704 825.284 510.473 775.047C538.961 729.636 562.167 667.258 586.853 600.78C639.574 458.443 704.849 282.506 859.731 181.482C794.146 226.427 739.053 287.987 691.949 368.51C645.414 448.062 612.894 535.603 584.357 612.735C558.782 681.67 534.54 746.916 504.774 794.043C472.005 845.833 435.171 871.213 389.246 873.765C279.711 879.812 192.658 799.972 139.091 731.957C84.5116 662.664 52.4623 591.414 48.3904 582.362C48.1402 581.805 47.9957 581.484 47.958 581.412C5.27672 455.946 18.5732 345.669 65.1701 248.941C57.6292 264.338 51.183 279.743 45.5536 295.317C29.8322 339.421 21.5905 385.302 21.2908 431.076C20.9008 480.136 29.4936 531.068 46.8451 582.062C46.8631 582.096 46.9504 582.292 47.106 582.64C50.3205 589.844 82.727 662.464 138.108 732.855C172.507 776.161 208.532 810.111 245.793 833.961C292.336 863.711 340.686 877.531 389.079 874.832C435.413 872.366 472.525 846.823 505.851 794.708C534.709 749.018 558.253 686.065 583.221 619.302L583.221 619.301C584.006 617.201 584.793 615.098 585.581 612.991L585.777 612.465C639.539 467.728 705.595 289.896 858.692 183.62C795.127 229.641 741.29 291.119 695.053 370.422C646.923 453.17 612.939 544.154 583.215 624.566C556.603 696.372 531.194 764.24 500.277 813.332C466.21 867.497 427.706 893.853 379.998 896.474C265.803 902.653 175.275 819.665 119.458 748.756C62.593 676.446 29.2669 602.184 25.0982 592.895C24.8455 592.331 24.7 592.007 24.6628 591.936C-13.9653 478.332 -8.56748 376.544 25.8246 285.644C24.6577 288.265 23.6209 291.134 22.5841 294.002L22.5834 294.004C5.9908 339.91 -2.4354 387.517 -2.78925 435.264C-3.23343 486.297 5.7137 539.287 23.8281 592.424C23.8553 592.475 23.9735 592.742 24.1817 593.212C27.9501 601.711 61.2126 676.733 118.754 749.491C154.473 794.616 192.096 830.221 230.843 854.821C279.263 886.065 329.247 900.225 379.832 897.542C428.226 894.843 466.601 868.24 500.946 813.912C530.957 766.257 555.395 700.828 581.397 631.207C582.181 629.108 582.967 627.005 583.754 624.899L584.291 623.456C643.756 463.784 717.491 265.797 898.26 158.672C984.808 107.508 1043.77 39.1366 1069.19 -39.0874C1080.54 -73.5245 1084.93 -108.75 1082.19 -143.698C1079.55 -177.083 1071.1 -208.373 1056.55 -236.747ZM209.072 89.9754C213.363 85.7233 217.74 81.4765 222.202 77.2348C297.601 5.77406 388.772 -55.4826 478.359 -107.78C550.142 -149.673 620.922 -185.824 681.734 -216.862C715.885 -234.208 747.958 -250.665 774.502 -265.188C886.096 -326.12 979.201 -272.124 1019.53 -195.408L1020.83 -192.933C1071.86 -92.4652 1050.45 60.842 885.755 164.09C950.526 120.664 994.964 65.283 1015.39 2.73361C1034.81 -56.4657 1030.53 -119.942 1004.44 -171.655L1003.14 -174.13C981.673 -214.963 948.267 -244.621 908.527 -257.969C864.183 -273.157 815.012 -267.094 766.654 -240.809C744.485 -228.714 718.325 -215.274 690.364 -200.908L690.361 -200.907L690.356 -200.904C686.245 -198.792 682.095 -196.66 677.913 -194.509C546.859 -127.716 367.631 -36.3616 237.622 87.0634C166.507 154.445 117.477 225.105 91.6817 297.08C61.868 380.778 62.3057 469.458 92.9369 560.241C92.9424 560.251 92.9613 560.293 92.9934 560.365L93.0683 560.534L93.1136 560.637C95.6578 566.402 125.323 633.625 176.602 698.654C207.808 738.651 241.308 769.871 275.339 791.726C318.114 819.149 362.53 831.708 407.084 829.311C449.855 826.984 483.76 803.637 514.101 755.527C541.44 712.081 563.756 652.162 587.405 588.555L587.604 588.02L587.604 588.02C638.965 450.084 702.603 279.177 855.022 183.276C789.735 226.869 735.213 286.722 688.704 366.37C645.06 441.286 614.502 523.162 587.291 596.071L585.628 600.525C584.957 602.317 584.287 604.106 583.618 605.893L583.352 606.603L583.294 606.757L583.294 606.757C559.356 670.673 536.837 730.8 509.118 774.545C477.775 824.209 442.609 848.616 398.464 851.098C293.453 856.767 210 780.32 158.547 714.949C126.933 674.866 103.279 634.017 88.5795 606.053C78.9928 587.815 73.0649 574.978 71.4881 571.563C71.2462 571.04 71.1067 570.738 71.0721 570.672C64.0329 549.846 58.4871 529.257 54.4405 508.887C40.3211 435.913 45.3592 364.713 69.8456 296.495C95.2052 225.763 141.927 156.561 209.072 89.9754ZM110.906 593.734C124.956 620.461 147.699 659.577 177.993 697.842C227.197 760.321 307.047 833.371 407.528 828.082C449.613 825.831 483.239 802.647 513.433 754.947C540.482 712.408 562.264 653.815 585.505 591.299L586.589 588.385C612.905 517.4 642.758 437.235 685.421 364.146C728.818 289.821 779.788 233.16 840.394 191.834C697.323 283.972 637.428 445.589 589.075 576.418L587.963 579.407C565.767 639.034 544.883 695.136 519.123 735.938C490.208 781.921 457.564 804.209 416.982 806.552C374.209 808.88 331.964 796.993 291.211 770.653C258.386 749.71 226.761 719.982 196.874 681.802C148.325 620.353 120.005 556.745 117 549.994C116.844 549.645 116.757 549.448 116.737 549.411C110.937 532.421 106.266 515.514 102.72 498.708C106.289 515.153 110.925 531.749 116.625 548.506C117.188 548.854 118.971 552.468 121.995 558.596C124.754 564.189 128.547 571.877 133.388 581.088C146.787 606.578 168.62 643.962 197.318 680.572C244.276 740.159 320.654 810.063 416.479 804.905C456.784 802.724 488.741 780.514 517.508 734.94C543.42 693.62 564.977 636.407 587.312 575.831L587.75 574.65C612.773 507.233 641.07 430.994 681.625 361.666C721.919 292.919 768.837 239.827 824.24 200.69C691.869 288.992 635.553 440.499 589.858 563.433L589.73 563.777L588.636 566.713L588.635 566.713C567.472 623.485 547.618 676.744 523.002 715.593C495.106 759.364 464.262 780.925 425.331 782.951C384.618 785.047 344.415 773.586 305.538 748.738C274.329 728.793 244.041 700.225 215.603 664.11C169.231 605.463 142.301 545.099 139.387 538.568L139.386 538.566L139.383 538.559C139.232 538.221 139.147 538.029 139.127 537.992C110.877 455.197 110.631 374.491 138.057 298.007C161.482 232.589 206.23 168.309 270.893 106.634C389.236 -5.77587 552.636 -89.187 671.892 -150.064L671.893 -150.064L671.903 -150.069C701.75 -165.227 729.519 -179.495 753.002 -192.232C797.057 -216.329 841.831 -221.766 882.24 -207.838C918.436 -195.008 949.038 -167.917 968.421 -131.044L969.592 -128.817C993.621 -81.7196 997.228 -23.6721 979.732 30.1993C962.077 84.8422 923.766 133.523 868.666 172.295C1012.93 77.9261 1031.31 -59.1781 985.189 -149.596L984.018 -151.824C947.204 -221.859 861.915 -271.361 760.041 -215.456C735.723 -202.232 706.284 -186.989 674.915 -171.267L673.631 -170.61C548.789 -106.789 378.08 -19.5202 254.538 97.7115C246.592 105.243 238.943 112.795 231.591 120.368C239.085 112.582 246.877 104.838 254.964 97.1393C378.784 -20.2546 549.495 -107.525 674.337 -171.345L675.62 -172.002C679.768 -174.122 683.882 -176.222 687.954 -178.302C714.549 -191.882 739.378 -204.56 760.468 -216.028C806.749 -241.425 853.583 -247.093 895.886 -232.33C933.455 -219.655 965.394 -191.404 985.818 -152.551L987.119 -150.076C1012.32 -100.751 1015.98 -39.8264 997.729 16.752C978.375 75.7242 936.693 128.11 876.225 169.303C1031.89 70.4758 1051.97 -75.0913 1003.32 -171.006L1002.15 -173.233C963.649 -246.484 874.315 -298.152 767.583 -239.734C744.632 -227.213 717.179 -213.118 688.263 -198.272L687.914 -198.093L686.795 -197.518C684.155 -196.163 681.503 -194.801 678.842 -193.434C547.788 -126.641 368.69 -35.0392 238.829 87.976C83.8041 235.057 36.5814 389.393 94.31 560.086C94.4554 560.116 95.2493 561.819 96.6932 564.915L96.6933 564.916C99.3037 570.514 104.039 580.669 110.906 593.734ZM102.72 498.708C73.4952 364.041 115.859 239.567 231.591 120.368C176.424 177.681 137.381 237.274 115.713 297.754C92.5815 362.24 88.1445 429.624 102.72 498.708ZM848.769 184.61C905.349 146.879 944.396 98.6907 962.084 44.2281C978.821 -6.93585 975.272 -62.1058 952.414 -106.975L951.243 -109.202C932.641 -144.59 903.506 -170.273 869.743 -181.935C831.228 -195.028 788.793 -189.986 746.687 -167.026C727.904 -156.887 705.822 -145.525 682.221 -133.38C680.402 -132.444 678.573 -131.503 676.737 -130.557L674.879 -129.601L673.017 -128.642L671.802 -128.017L669.614 -126.89C556.053 -69.0138 400.701 10.3452 288.124 117.127C226.43 175.452 184.092 236.708 161.574 299.008C135.352 371.554 135.707 448.316 162.562 527.073C162.573 527.094 162.633 527.23 162.74 527.474C165.105 532.853 190.678 591.028 235.097 647.08C277.948 701.623 347.379 765.231 434.981 760.344C472 758.14 501.305 737.801 527.772 696.157C551.235 659.278 570.195 608.495 590.321 554.592L590.321 554.591L590.321 554.591L591.424 551.636C636.218 430.713 692.014 280.544 827.359 197.967C768.85 236.097 720.233 289 678.836 359.768C640.165 425.721 613.059 498.652 589.224 562.782L588.765 564.017C567.468 621.724 547.078 676.315 522.315 715.67C494.846 758.869 464.28 780.268 426.035 782.217C334.46 787.158 261.685 720.65 216.846 663.708C189.337 628.667 168.545 593.263 155.666 568.764C147.536 553.297 142.605 542.475 140.962 538.868L140.961 538.867L140.96 538.865L140.959 538.862L140.956 538.855C140.63 538.141 140.435 537.713 140.371 537.59C87.8303 382.301 130.981 241.66 272.23 107.794C390.424 -4.20588 553.824 -87.617 673.081 -148.494L673.091 -148.499C702.938 -163.657 730.986 -178.088 754.191 -190.662C851.334 -243.806 932.445 -196.717 967.568 -129.899L968.739 -127.672C1012.69 -40.6888 994.767 91.5966 854.094 181.42C853.8 181.596 853.505 181.772 853.211 181.948L852.809 182.187L852.458 182.396C851.224 183.128 849.995 183.866 848.769 184.61ZM236.21 646.43C210.02 613.207 190.417 579.374 178.19 556.112C170.281 541.067 165.56 530.564 164.203 527.545L164.203 527.544C164.123 527.366 164.055 527.215 163.998 527.09C163.894 526.858 163.829 526.717 163.805 526.671C113.517 379.125 154.557 245.539 288.644 118.117C401.221 11.3351 556.296 -67.8616 669.856 -125.738C671.779 -126.728 673.694 -127.714 675.601 -128.696L678.636 -130.258L682.468 -132.23C706.068 -144.374 728.147 -155.736 746.929 -165.873C839.34 -216.256 916.551 -171.742 949.982 -108.143L951.022 -106.163C993.529 -22.5782 975.453 104.805 837.923 190.266C890.748 154.54 927.166 108.974 943.859 57.8675C959.559 9.57212 956.346 -42.8838 934.658 -85.5262L933.618 -87.5059C916.056 -120.915 888.666 -145.352 856.684 -157.084C819.932 -169.589 779.686 -164.532 739.805 -142.871C720.598 -132.256 697.407 -120.413 673.033 -107.966L673.031 -107.965C670.947 -106.901 668.855 -105.833 666.756 -104.761L664.539 -103.627C557.273 -48.7662 410.854 26.1188 304.904 126.824C246.436 182.296 205.969 240.196 184.766 299.465C159.877 368.323 160.062 441.304 185.523 516.025C185.529 516.036 185.548 516.078 185.58 516.15C185.609 516.214 185.647 516.3 185.696 516.409C187.975 521.524 212.404 576.332 254.398 629.761C294.872 681.165 360.832 741.626 443.908 737.118C478.868 735.146 506.911 715.866 531.952 676.349C553.795 642.167 571.315 595.294 589.944 545.453C590.711 543.4 591.48 541.343 592.252 539.281C634.184 426.239 686.427 285.832 811.346 206.93C758.161 242.921 713.473 292.408 675.47 357.374C638.553 420.641 612.551 490.148 589.921 551.543C547.79 665.069 514.53 754.66 435.018 759.029C347.824 764.001 278.801 700.479 236.21 646.43ZM200.37 543.579C211.948 565.604 230.64 597.706 255.511 629.111C295.855 680.268 361.407 740.644 444.074 736.05C519.338 731.898 550.969 646.815 590.748 539.188C628.889 436.358 675.502 311.043 777.32 229.492C675.997 306.072 630.541 428.062 593.529 527.696C575.194 577.206 557.897 623.847 536.582 657.309C512.968 694.7 486.316 713.168 453.007 714.823C374.18 719.114 312.101 661.887 273.466 613.289C231.933 560.562 208.381 506.072 208.399 505.415C184.333 434.731 184.17 365.941 207.595 300.524C227.613 244.534 265.948 189.495 321.042 137.286C421.87 41.699 560.614 -29.1425 662.281 -81.0529L662.281 -81.0533L663.384 -81.6161C688.649 -94.4227 712.671 -106.827 732.407 -117.7C770.211 -138.472 808.249 -142.888 842.83 -131.056C873.753 -120.646 899.806 -97.3683 916.457 -65.6919L917.498 -63.7122C938.015 -23.2969 941.04 26.0349 926.081 72.281C912.146 115.188 883.481 153.767 842.579 185.422C957.844 104.728 971.713 -8.9751 933.267 -84.7142L932.226 -86.6939C900.616 -146.829 827.451 -189.178 739.899 -141.309C721.356 -131.061 699.321 -119.797 675.726 -107.737L675.623 -107.684C672.721 -106.201 669.796 -104.705 666.85 -103.198L664.499 -101.996L664.498 -101.995C557.248 -47.1435 411.181 27.5608 305.276 128.223C177.937 249.12 139.136 375.902 186.487 515.785C186.763 516.024 187.711 518.012 189.331 521.41C191.642 526.258 195.322 533.976 200.37 543.579ZM275.006 612.067C251.731 582.317 233.95 551.947 223.022 531.16C214.827 515.569 210.18 505.345 210.198 504.688C165.246 372.136 201.937 252.406 322.249 138.199C422.8 42.7733 561.542 -28.0677 663.209 -79.9781L664.312 -80.5412C671.422 -84.2339 678.454 -87.8549 685.329 -91.3953L685.345 -91.4032C702.768 -100.375 719.186 -108.83 733.336 -116.625C816.029 -161.982 885.147 -121.798 915.066 -64.8799L915.977 -63.1477C952.847 9.63875 938.769 119.553 824.355 196.214C865.705 165.58 894.36 127.906 908.134 85.7647C922.335 42.2244 919.238 -4.479 900.021 -42.4202L899.11 -44.1525C883.5 -73.8496 858.913 -95.7204 829.622 -105.79C797.212 -116.949 760.954 -112.603 725.375 -93.1299C712.056 -85.8184 696.621 -77.9335 680.224 -69.557L680.217 -69.5533L680.215 -69.5525L680.206 -69.548L680.193 -69.5412L680.169 -69.5289C673.655 -66.2013 666.99 -62.7962 660.245 -59.3187C564.173 -10.3573 432.836 56.6001 337.537 147.153C285.39 196.671 249.335 248.44 230.501 301.152C208.408 362.882 208.68 427.729 231.351 494.377C231.353 494.381 231.356 494.387 231.36 494.395L231.376 494.429C231.404 494.491 231.454 494.605 231.526 494.768L231.528 494.772C233.694 499.659 255.424 548.699 292.76 595.982C329.001 642.097 387.887 696.016 462.058 691.856C530.329 688.229 558.85 611.751 594.63 515.189C630.579 418.024 674.929 298.151 777.834 226.675C675.069 303.424 629.429 426.296 592.104 526.782L592.043 526.946C554.338 628.835 524.206 709.162 453.191 713.098C375.051 717.313 313.232 660.58 275.006 612.067ZM245.195 518.638C255.472 538.188 272.066 566.988 294.43 595.007C330.41 640.628 388.758 694.214 462.373 690.379C529.117 686.767 557.006 611.972 592.439 516.943L593.127 515.096C628.568 419.294 672.223 301.805 771.712 229.648C672.618 296.438 630.167 410.464 595.902 502.945L595.845 503.099C562.166 593.849 535.547 665.575 471.286 669.146C401.644 672.927 346.361 622.404 312.369 579.181C277.216 534.706 256.876 488.919 254.797 484.239L254.796 484.238C254.693 484.005 254.635 483.874 254.622 483.85C233.346 421.24 233.244 360.176 253.725 302.298C271.651 252.703 305.296 203.959 354.344 157.543C443.485 72.9908 566.361 10.1042 656.227 -35.888L657.404 -36.4902C659.724 -37.6769 662.033 -38.8565 664.326 -40.0286C684.126 -50.1456 702.814 -59.6947 718.507 -68.2747C793.002 -109.169 855.121 -73.3088 881.918 -22.3293L882.829 -20.5971C900.875 15.1163 903.914 58.9422 890.472 99.7751C877.154 140.781 848.809 177.041 808.081 206.199C919.902 134.018 933.967 28.3179 898.612 -40.9508L897.701 -42.6832C869.472 -96.3855 804.251 -133.994 726.286 -91.3977C707.662 -81.1738 685.03 -69.5812 661.156 -57.5864C565.083 -8.62499 433.746 58.3325 338.725 148.723C225.16 256.406 190.709 369.332 233.003 494.06C233.168 494.094 233.934 495.724 235.294 498.614L235.294 498.615L235.295 498.616L235.296 498.618L235.296 498.618C237.308 502.895 240.617 509.928 245.195 518.638ZM313.909 577.959C293.142 551.596 277.459 524.528 267.833 506.215C261.706 494.56 257.905 486.35 256.697 483.741L256.696 483.739C256.468 483.247 256.333 482.954 256.292 482.876C216.659 365.976 249.147 259.694 355.681 158.703C444.626 74.6048 567.141 11.9033 656.991 -34.0806L658.314 -34.7579C659.673 -35.4528 661.028 -36.1454 662.378 -36.8355L665.238 -38.2965C685.037 -48.4135 703.725 -57.9624 719.417 -66.5424C792.521 -106.625 853.693 -71.1821 880.101 -20.9451L880.881 -19.4603C913.506 44.58 901.366 141.191 801.46 208.83C836.633 182.268 860.996 149.727 872.656 113.525C885.061 75.5608 882.358 34.4493 865.483 0.962988L864.702 -0.521862C839.595 -48.2842 781.523 -81.9794 712.445 -43.9229C696.047 -34.9985 676.328 -24.7826 655.367 -14.1645L653.339 -13.129C569.246 29.8211 454.783 88.2828 371.819 167.186C325.997 210.749 294.354 256.384 277.613 302.7C258.057 356.804 258.267 413.924 278.149 472.498C278.001 472.908 297.427 518.164 331.957 561.72C363.702 602.05 415.234 649.588 480.627 646.023C540.643 642.669 565.484 575.852 597.091 490.833L597.142 490.696C628.631 405.848 667.215 301.899 755.775 238.991C666.456 307.178 626.649 414.612 593.99 502.767L593.578 503.879C560.365 593.356 534.135 664.017 471.47 667.421C402.515 671.125 347.77 620.935 313.909 577.959ZM289.502 492.713C314.219 539.733 382.648 649.851 480.533 644.461C539.173 641.262 563.866 574.861 595.175 490.668L595.231 490.518C625.041 410.193 661.442 312.108 740.79 248.2C662.123 307.067 627.045 401.386 598.392 478.434C569.111 557.62 545.905 620.001 489.695 623.055C376.826 629.28 305.847 472.665 301.088 462.163C300.945 461.848 300.862 461.664 300.839 461.621C282.351 407.082 282.033 353.905 300.256 303.488C315.683 260.202 345.325 217.675 387.774 177.374C465.643 103.462 573.387 48.3362 651.69 8.45317C656.976 5.71983 662.188 3.05276 667.282 0.446723C680.924 -6.53275 693.71 -13.0746 704.745 -19.2801C769.783 -54.6543 823.68 -23.3712 847.097 21.1753L847.877 22.6602C863.582 53.9201 866.228 92.156 854.711 127.662C844.233 159.962 822.887 189.197 792.346 213.324C882.731 150.177 893.577 61.2025 863.535 2.09985L862.754 0.615012C838.038 -46.4049 781.043 -79.435 712.669 -42.1133C696.271 -33.1888 676.552 -22.9729 655.312 -12.1924L655.268 -12.1699L655.268 -12.1697C570.999 30.8729 455.792 89.7178 372.321 168.833C272.536 263.298 242.436 362.364 279.392 472.095C279.435 472.177 279.564 472.461 279.779 472.932L279.787 472.95L279.792 472.959L279.793 472.963L279.794 472.965C280.902 475.395 284.2 482.625 289.502 492.713ZM489.879 621.331C398.708 626.358 335.126 524.079 312.099 480.275C306.884 470.353 303.771 463.381 302.971 461.589L302.971 461.587C302.853 461.324 302.785 461.173 302.769 461.141C268.193 359.396 296.462 267.217 389.093 179.191C466.684 105.442 574.149 50.4783 652.453 10.5954C654.711 9.42746 656.958 8.26611 659.19 7.11259C676.172 -1.66371 692.276 -9.98642 705.786 -17.3003C769.302 -52.1099 822.531 -21.4068 845.557 22.3973L846.338 23.8822C875.135 80.6827 863.486 167.21 771.269 226.234C803.535 202.894 826.008 173.899 836.491 141.307C847.397 108.099 845.217 72.826 830.406 43.9566L829.755 42.7192C808.161 1.63847 758.034 -27.3161 697.581 5.70609C685.158 12.3905 670.396 19.9427 654.784 27.9301L654.663 27.9917C652.505 29.0955 650.331 30.2078 648.145 31.3272C575.54 68.2084 475.999 118.871 403.752 187.56C364.253 225.168 336.892 264.424 322.651 304.43C306.04 350.993 306.189 400.388 323.281 450.888C323.304 450.933 323.388 451.116 323.53 451.431C328.109 461.526 393.717 606.183 498.221 600.386C550.179 597.548 571.755 539.677 598.961 466.232L599.228 465.514C627.184 390.502 661.533 298.335 742.496 244.791C661.421 303.599 625.815 399.361 596.751 477.528L596.48 478.256L596.418 478.423C567.333 556.463 544.269 618.348 489.879 621.331ZM334.595 467.569C355.929 508.155 414.789 602.837 498.832 598.089C549.287 595.158 570.566 538.108 597.197 465.644C621.476 400 650.928 320.897 712.284 265.771C652.083 315.94 624.1 391.445 600.989 453.803L600.787 454.349L600.651 454.714C575.731 521.84 555.9 575.26 507.87 577.792C411.724 583.02 351.035 449.461 347.042 440.672L347.04 440.668C346.923 440.411 346.855 440.262 346.837 440.226C317.451 353.888 342.554 272.291 420.977 198.057C487.129 135.309 578.044 88.8482 644.737 54.7659L645.729 54.2588C662.387 45.8292 678.081 37.6394 691.14 30.6637C746.473 -0.340108 792.553 26.4492 812.586 64.5604L813.237 65.7978C826.878 92.4401 828.721 124.999 818.853 155.337C810.552 180.93 794.352 204.076 771.358 223.766C845.377 169.596 854.026 95.012 828.458 45.0934C807.55 3.93528 757.98 -25.344 698.64 7.02852C684.468 14.6538 667.383 23.6556 649.204 32.6497L646.949 33.8046C574.675 70.8268 476.446 121.144 405.367 188.558C319.767 269.891 293.462 355.425 325.507 449.589C325.589 449.745 325.797 450.172 326.125 450.845L326.127 450.849C327.36 453.376 330.283 459.367 334.595 467.569ZM508.072 575.41C430.617 579.547 376.605 492.707 356.962 455.338C352.99 447.782 350.555 442.302 349.498 439.922C349.205 439.262 349.017 438.841 348.933 438.68C319.695 351.932 343.612 273.614 422.462 198.807C488.06 136.383 578.971 89.924 645.664 55.8417L646.658 55.3338C647.996 54.6568 649.328 53.9829 650.654 53.3123C665.839 45.6331 680.178 38.3817 692.068 31.7387C745.993 2.20419 790.995 28.3284 810.509 65.4497L811.159 66.6871C835.08 114.166 826.233 185.441 752.771 235.343C810.499 189.617 816.747 128.309 795.716 87.0639L795.196 86.074C776.983 51.4271 734.672 26.9654 683.678 54.4662C675.687 58.9114 666.501 63.6112 656.709 68.6205C652.02 71.0191 647.193 73.4887 642.292 76.0353C581.483 107.001 497.894 149.969 437.18 207.399C365.635 275.355 342.643 349.899 369.499 428.659C369.519 428.696 369.587 428.847 369.704 429.104C373.518 437.488 428.84 559.095 516.626 554.293C560.412 551.978 578.465 503.467 601.313 442.072L601.443 441.722L601.993 440.254C624.753 379.533 652.589 305.27 715.736 260.207C651.74 310.915 622.481 389.271 598.615 453.676L598.479 454.043C573.856 520.348 554.323 572.948 508.072 575.41ZM379.513 442.866C397.335 476.771 446.758 556.265 517.367 552.244C559.373 549.998 577.128 502.307 599.679 441.734L599.81 441.382C620.702 385.132 645.877 317.474 699.1 271.24C646.763 312.64 622.792 376.91 603.27 429.838C583.453 483.448 566.303 529.681 526.405 531.947C446.742 536.335 396.603 425.779 393.349 418.603C393.254 418.394 393.199 418.273 393.185 418.245C369.136 346.901 389.74 279.571 454.405 217.894C509.224 165.846 584.892 127.177 640.285 99.0495C641.771 98.2873 643.247 97.5308 644.711 96.7802L644.712 96.7793L644.714 96.7786L644.715 96.7779L644.734 96.7681L644.751 96.7594C656.821 90.5716 668.11 84.7843 677.646 79.5063C722.965 54.3483 761.508 76.4824 778.029 107.912L778.55 108.902C797.094 145.384 792.34 198.896 743.961 239.895C807.955 194.49 815.504 130.842 793.899 88.4483C776.503 53.9715 734.878 29.4324 685.257 56.7785C677.266 61.224 668.079 65.924 658.286 70.9337L658.273 70.9407L658.249 70.9527C653.573 73.3451 648.759 75.808 643.871 78.3477C583.062 109.313 499.622 151.871 439.185 209.139C367.363 277.257 345.407 348.933 372.264 427.693C372.246 428.35 374.829 433.957 379.513 442.866ZM526.199 529.48C462.585 532.975 418.01 461.322 401.879 430.634C398.692 424.571 396.583 420.154 395.594 418.083L395.592 418.078C395.29 417.446 395.094 417.034 395.002 416.861C339.782 254.397 528.054 158.089 640.509 100.859C641.995 100.097 643.471 99.3402 644.936 98.5894C657.021 92.3942 668.324 86.5998 677.871 81.316C722.206 57.0552 759.394 78.6865 775.395 109.127L775.915 110.116C795.145 147.978 788.767 204.663 732.562 245.607C773.701 209.092 777.387 162.437 761.195 130.451L760.674 129.461C745.844 101.249 711.479 81.5281 670.614 104.087C667.819 105.532 664.886 107.058 661.832 108.647C654.264 112.585 645.951 116.91 637.149 121.356C587.582 146.73 519.965 181.346 470.915 227.763C412.871 282.664 394.378 342.941 416.027 406.952C416.042 406.982 416.097 407.103 416.191 407.31L416.192 407.311C419.268 414.086 464.037 512.681 535.336 508.72C571.114 506.918 586.633 465.195 604.376 417.323C621.33 371.471 641.96 315.91 686.302 278.787C640.93 320.47 618.923 379.548 600.615 428.695L600.411 429.242C580.15 484.082 564.037 527.446 526.199 529.48ZM424.349 417.942C438.789 445.412 478.643 509.47 535.538 506.338C569.404 504.358 583.739 465.914 601.926 416.813L602.399 415.546C619.041 371.017 638.942 317.771 680.372 280.632C639.325 313.091 620.617 363.538 605.236 405.012L605.101 405.377C589.285 447.918 575.692 484.312 544.017 486.307C481.077 489.842 441.675 403.186 438.786 396.833C438.692 396.627 438.637 396.506 438.621 396.474C419.502 340.044 435.885 286.822 487.047 238.202C530.021 197.336 589.68 166.941 633.226 144.754L633.76 144.482C638.275 142.116 642.668 139.878 646.869 137.737L646.88 137.732L646.888 137.728C652.76 134.736 658.26 131.934 663.199 129.239C699.759 108.87 730.075 126.425 743.214 151.419L743.604 152.162C757.779 180.3 754.636 221.096 719.15 253.104C770.059 216.494 776.112 165.651 758.838 131.503L758.448 130.761C744.138 103.538 711.129 84.32 671.654 106.067C662.503 111.1 651.341 116.717 639.845 122.503L638.189 123.336C537.534 174.649 369.541 260.415 418.661 405.738C418.643 406.395 420.706 411.012 424.349 417.942ZM544.367 483.515C494.47 486.121 459.467 429.906 446.718 405.654C445.402 403.151 444.324 400.985 443.479 399.289L443.474 399.28L443.472 399.276L443.472 399.275L443.471 399.274L443.47 399.272C442.232 396.786 441.497 395.311 441.255 395.26C397.729 267.547 545.616 192.026 634.225 146.776L634.523 146.624C645.486 141.195 655.762 135.844 664.239 131.219C699.538 111.909 728.63 129.209 741.1 153.623C756.519 183.603 750.97 228.644 705.68 260.929C735.979 233.098 738.756 198.04 726.278 173.721L725.888 172.978C714.439 151.199 688.297 136.056 656.741 153.504C650.829 156.695 644.116 160.146 636.814 163.899C635.89 164.374 634.957 164.853 634.014 165.338C633.126 165.795 632.229 166.256 631.325 166.722C593.424 185.933 541.906 212.446 504.239 248.015C459.823 290.111 445.678 336.531 462.27 385.387C463.683 388.767 497.555 466.347 553.768 463.291C581.166 461.769 592.877 430.403 606.516 393.871L606.757 393.228C619.607 358.205 635.348 315.64 669.066 287.438C634.085 320.286 616.893 366.455 602.651 404.866C586.687 447.818 573.982 481.752 544.367 483.515ZM469.309 393.245C480.238 414.034 510.655 462.905 553.71 460.414C579.209 459.115 590.155 429.439 603.768 392.386L603.9 392.031C616.386 358.483 631.304 318.4 661.994 289.937C632.517 313.604 618.806 350.226 607.574 380.227L607.432 380.606C595.893 411.921 585.985 438.727 562.267 439.957C517.019 442.443 489.1 383.332 485.115 374.895L485.114 374.893C485.019 374.691 484.937 374.518 484.869 374.376C484.831 374.295 484.797 374.224 484.767 374.164C484.731 374.089 484.701 374.029 484.678 373.986C452.258 278.416 562.085 222.398 627.759 188.917C634.2 185.675 640.202 182.482 645.404 179.715L645.405 179.714L645.432 179.7C646.722 179.014 647.963 178.354 649.149 177.726C676.382 163.124 698.886 176.187 708.513 194.501L708.773 194.996C719.21 215.429 716.929 245.096 691.685 268.561C732.18 240.766 737.041 201.075 723.643 174.935L723.253 174.192C712.455 153.651 687.39 139.173 657.374 155.399C651.115 158.777 643.757 162.563 635.893 166.61L635.878 166.618C634.493 167.33 633.093 168.051 631.68 168.779L631.38 168.932C554.839 208.107 427.065 273.503 464.366 383.84L469.309 393.245ZM562.748 437.412C526.281 439.292 500.713 398.263 491.476 380.691C489.72 377.35 488.632 374.892 488.088 373.663L488.087 373.66L488.084 373.654C487.905 373.249 487.786 372.979 487.721 372.856C456.194 279.677 564.499 224.223 629.06 191.392C635.805 187.997 642.068 184.656 647.598 181.706L647.602 181.704L647.659 181.674C648.709 181.114 649.733 180.568 650.728 180.038C676.162 166.164 697.31 178.723 706.269 196.458C717.428 218.332 713.369 251.064 680.491 274.415C697.813 255.981 699.918 233.168 691.618 216.832L691.357 216.337C683.291 200.992 664.686 190.505 642.721 202.679C639.629 204.483 636.12 206.285 632.351 208.22C630.014 209.42 627.577 210.671 625.077 212.006L625.066 212.012C571.188 239.578 481.501 285.465 508.098 363.73C508.159 363.845 508.278 364.099 508.456 364.475C511.72 371.389 534.592 419.845 571.78 417.769C591.248 416.756 599.528 394.458 608.993 368.88C617.265 346.488 627.374 319.411 647.435 300.135C625.836 323.65 614.502 354.212 604.982 380.095L604.771 380.658C593.055 411.867 583.87 436.336 562.748 437.412ZM571.87 414.482C542.529 416.083 521.68 382.648 514.134 368.293L514.133 368.293L514.133 368.292C512.312 364.828 511.011 362.353 511.159 361.943C485.453 286.063 573.485 241.149 626.248 214.234C632.779 210.745 638.753 207.582 643.892 204.906C664.187 193.707 681.029 203.606 688.444 217.714L688.705 218.209C698.314 237.181 693.956 266.246 661.806 285.335C630.053 304.185 617.175 338.379 606.67 366.269L606.609 366.433L606.256 367.369L606.004 368.037L605.434 369.542C596.116 394.159 588.805 413.474 571.87 414.482Z" fill="url(#paint1_linear_204_494)"/>
</g>
<defs>
<linearGradient id="paint0_linear_204_494" x1="385" y1="16.0001" x2="385" y2="330" gradientUnits="userSpaceOnUse">
<stop stop-color="#2E0D77"/>
<stop offset="1" stop-color="#7130A1"/>
</linearGradient>
<linearGradient id="paint1_linear_204_494" x1="109.009" y1="-66.3116" x2="328.973" y2="626.197" gradientUnits="userSpaceOnUse">
<stop stop-color="#703CF4"/>
<stop offset="1" stop-color="#C86DD7"/>
</linearGradient>
</defs>
</svg>
