<svg width="128" height="36" viewBox="0 0 128 36" fill="none" xmlns="http://www.w3.org/2000/svg">
<g clip-path="url(#clip0_204_547)">
<path d="M48.9376 21.0211H42.3999V4.86778H33.1926V0H57.85V4.86778H48.9376V21.0211ZM89.7773 16.127V21.0211H66.7732V0H89.7773V4.86778H73.3119V8.39676H88.763V12.6496H73.3119V16.1261H89.7773V16.127ZM107.32 21.0211H98.5133L108.681 10.6443L98.8867 0H107.4L113.19 6.49946L118.955 0H127.548L117.646 10.6443L128.002 21.0211H119.221L113.27 14.7094L107.32 21.0211ZM24.7145 0.00194595V4.34238H8.01635V4.5613C7.87049 4.56923 7.72495 4.58221 7.57999 4.60022C7.30308 4.63456 7.033 4.711 6.77902 4.82692C6.53363 4.93963 6.32564 5.12063 6.17975 5.34843C6.02944 5.58 5.95381 5.88454 5.95381 6.25913C5.95381 6.93535 6.19332 7.38097 6.67429 7.596C7.02241 7.75168 7.47041 7.85092 8.01635 7.89276V8.22746H18.0004L18.0488 8.22941H18.0517C18.4425 8.24595 18.7945 8.26151 19.1087 8.27805C19.5813 8.2974 20.0534 8.32855 20.5245 8.37146C21.9179 8.44735 23.0137 8.83168 23.8098 9.52346C23.5131 9.83773 23.4151 10.2941 23.7613 10.7582C23.8864 10.9294 24.0037 11.0831 24.1085 11.232C23.7206 12.4969 23.9494 14.2054 23.643 15.2115C23.4966 15.6979 23.6624 16.0881 23.9611 16.3333C23.6265 17.2168 23.389 18.0642 23.5945 19.0343L21.9829 20.6494C21.1829 20.8985 20.2336 21.0221 19.1359 21.0211H0.187988V16.4724H16.3616C16.474 16.4724 16.5846 16.4705 16.6913 16.4685C16.7806 16.4658 16.8698 16.4612 16.9589 16.4549C17.1082 16.4481 17.2498 16.4355 17.3875 16.4209C17.6859 16.3874 17.9779 16.3107 18.2544 16.1932C18.5133 16.0832 18.7363 15.9013 18.8944 15.6697C19.0564 15.4391 19.1349 15.1346 19.1349 14.761C19.1349 14.3329 19.0244 13.9904 18.8013 13.7316C18.5981 13.4971 18.3393 13.3177 18.0488 13.2101L17.9344 13.1702C17.6175 13.0678 17.2904 13.0006 16.9589 12.9697V12.5718H6.52011C6.46381 12.5697 6.40755 12.5664 6.35138 12.5621L6.19429 12.5552C5.72173 12.5348 5.24969 12.5036 4.77853 12.4618C2.99623 12.3645 1.67065 11.8245 0.800837 10.8389C0.834273 10.7951 0.863495 10.7482 0.888109 10.6988C1.1422 10.2049 1.3095 9.67067 1.38265 9.11968C1.48932 8.33157 0.926897 7.53178 1.06362 6.83222C1.19162 6.17351 1.71429 5.8573 1.63865 5.076C1.55235 4.20616 0.890049 3.57957 0.737806 2.74768C0.714973 2.61846 0.670376 2.49409 0.605928 2.37989L2.58314 0.397946C3.26872 0.13427 4.08908 0.00194595 5.0452 0.00194595H24.7136H24.7145Z" fill="white"/>
<path d="M6.35132 0.00195312V4.91547C5.51059 4.96412 5.19156 5.79212 5.39035 6.4372C5.08393 7.09103 5.38259 8.05233 6.28732 8.10682C6.30855 8.10962 6.32991 8.11125 6.35132 8.11168V12.5728H0.179199V2.80217L0.602957 2.37698L2.58114 0.395034H2.57726L2.97484 0.00195312H6.35132Z" fill="white"/>
<path d="M8.01433 4.46704H4.38379V8.10596H8.01433V4.46606V4.46704ZM24.5118 8.22952V18.1354L23.5964 19.0519L23.5935 19.0344L21.9818 20.6495L22.0119 20.6398L21.6337 21.0212H18.0478V8.22952H24.5118Z" fill="white"/>
<path d="M16.9581 12.8491H19.4046V16.6311H16.6895V16.4696C16.7791 16.4675 16.8687 16.463 16.9581 16.4559V12.8491Z" fill="white"/>
<path d="M16.6913 16.4695C16.7824 16.4666 16.8716 16.4627 16.9589 16.4559V16.8159H0.188965V16.4744H16.3616C16.4741 16.4744 16.5846 16.4714 16.6913 16.4695ZM24.7145 3.90161H8.01636V4.8668H24.7145V3.90161ZM21.9839 20.6494L22.013 20.6397L21.6348 21.0211H21.6125L21.9829 20.6494H21.9839ZM24.5128 18.1138V18.1352L23.5975 19.0518L23.5945 19.0343L24.5128 18.1138Z" fill="white"/>
<path d="M22.591 16.2107L19.7149 19.0936L21.6349 21.0182L24.512 18.1352L22.592 16.2107H22.591ZM3.61697 33.4975L3.67224 34.4043C3.18448 34.4588 2.35442 34.486 1.18206 34.486C0.825212 34.486 0.539151 34.3839 0.326788 34.1815C0.113455 33.9791 0.00484848 33.7048 0 33.3584V29.9744C0.00484848 29.629 0.114424 29.3546 0.326788 29.1522C0.540121 28.9489 0.825212 28.8477 1.18206 28.8477C2.35539 28.8477 3.18448 28.8749 3.67224 28.9294L3.61794 29.844H1.55636C1.42642 29.844 1.33333 29.8771 1.27515 29.9413C1.21891 30.0065 1.19079 30.1116 1.19079 30.2575V31.1079H3.32994V31.9991H1.19079V33.0762C1.19079 33.227 1.21891 33.335 1.27612 33.4002C1.33333 33.4644 1.42642 33.4975 1.55636 33.4975H3.61697ZM8.67491 31.2704V33.1579C8.67491 33.3078 8.70594 33.4138 8.768 33.4732C8.83006 33.5325 8.93964 33.5627 9.09479 33.5617H9.58545L9.70957 34.3965C9.41479 34.5045 9.05406 34.559 8.62836 34.559C8.28121 34.559 8.01164 34.4569 7.81867 34.2545C7.62667 34.0521 7.53067 33.7699 7.53164 33.408V31.2713H6.85479V30.5095L7.53164 30.4686V29.3517H8.67491V30.4686H9.74061V31.2713H8.67491V31.2704ZM14.0354 30.4677L14.1207 31.0592C14.6754 30.5903 15.2233 30.3548 15.7624 30.3548C16.1096 30.3548 16.3753 30.4502 16.5595 30.6389C16.7447 30.8277 16.8368 31.103 16.8359 31.465V34.4617H15.6916V31.8366C15.6916 31.6586 15.6635 31.535 15.6092 31.4679C15.5549 31.4007 15.4579 31.3667 15.3183 31.3667C15.0739 31.3667 14.7181 31.4893 14.2516 31.7325V34.4617H13.1016V30.4686H14.0354V30.4677ZM20.5867 31.3589L20.4771 30.5494C21.1365 30.4229 21.8056 30.3577 22.4766 30.3548C22.9954 30.3548 23.3765 30.4638 23.6208 30.6827C23.8633 30.9016 23.9864 31.2811 23.9855 31.8211V34.4617H23.0749L22.9585 33.8546C22.5745 34.3236 22.1023 34.558 21.5428 34.558C21.1743 34.558 20.8737 34.4569 20.641 34.2545C20.4073 34.0521 20.2899 33.7699 20.2899 33.408V33.0032C20.2899 32.6851 20.3937 32.436 20.6022 32.2579C20.8107 32.0799 21.0987 31.9904 21.4652 31.9904H22.8354V31.8123C22.8296 31.608 22.785 31.4698 22.6996 31.3998C22.6133 31.3297 22.4485 31.2947 22.2051 31.2947C21.7784 31.2947 21.2393 31.3161 20.5857 31.3589H20.5867ZM21.4264 33.0928V33.2465C21.4264 33.5218 21.5767 33.659 21.8773 33.659C22.1886 33.659 22.5076 33.5296 22.8344 33.2698V32.7113H21.7988C21.5496 32.7172 21.4255 32.8437 21.4255 33.0928H21.4264ZM32.0999 34.4617V28.873C32.7938 28.8256 33.4892 28.8013 34.1847 28.8C35.041 28.8 35.6364 29.0043 35.9709 29.4149C36.3055 29.8255 36.4722 30.5766 36.4732 31.6673C36.4732 32.7571 36.3055 33.5082 35.9709 33.9188C35.6364 34.3294 35.041 34.5347 34.1857 34.5347C33.5321 34.5347 32.8378 34.5094 32.1008 34.4617H32.0999ZM33.2829 29.772V33.553L33.7144 33.5569C33.9142 33.5598 34.0713 33.5617 34.1857 33.5617C34.5842 33.5617 34.8577 33.4294 35.0061 33.1647C35.1544 32.9001 35.2291 32.401 35.2281 31.6664C35.2281 30.9318 35.1535 30.4307 35.0061 30.1631C34.8587 29.8965 34.5852 29.7623 34.1857 29.7623L33.2829 29.772ZM42.4863 32.8651H41.1016C41.1384 33.157 41.2228 33.3535 41.3547 33.4527C41.4865 33.552 41.7057 33.6026 42.0121 33.6026C42.4902 33.5987 42.9682 33.5685 43.4434 33.5131L43.552 34.2584C43.1535 34.4588 42.5959 34.558 41.8793 34.558C41.1588 34.558 40.6448 34.3965 40.3394 34.0716C40.0339 33.7485 39.8807 33.2144 39.8798 32.4691C39.8798 31.6858 40.0291 31.138 40.3278 30.8247C40.6255 30.5105 41.1278 30.3538 41.8327 30.3548C42.4708 30.3548 42.9324 30.4696 43.2175 30.6992C43.5035 30.9289 43.648 31.2782 43.6538 31.7481C43.6538 32.1208 43.5617 32.4 43.3775 32.5868C43.1932 32.7726 42.8965 32.866 42.4863 32.8651ZM41.0783 32.1451H42.1673C42.3079 32.1451 42.4019 32.11 42.4514 32.04C42.5065 31.9474 42.5323 31.8402 42.5251 31.7325C42.5251 31.5438 42.4785 31.4124 42.3855 31.3395C42.2924 31.2665 42.1207 31.2295 41.8715 31.2305C41.5767 31.2305 41.375 31.2908 41.2655 31.4124C41.1559 31.534 41.0928 31.7783 41.0783 32.1451ZM50.9285 30.4677L49.6679 34.1776C49.6058 34.3673 49.4807 34.4617 49.2945 34.4607H48.2987C48.1115 34.4607 47.9874 34.3664 47.9253 34.1786L46.6647 30.4677H47.8865L48.5789 32.9721C48.6352 33.193 48.6904 33.4304 48.7418 33.6843H48.8436L49.0221 32.9721L49.7144 30.4686H50.9285V30.4677ZM56.5605 32.8651H55.1767C55.2126 33.157 55.297 33.3535 55.4288 33.4527C55.5617 33.552 55.7808 33.6026 56.0863 33.6026C56.5653 33.5987 57.0424 33.5685 57.5185 33.5131L57.6272 34.2584C57.2276 34.4588 56.6701 34.558 55.9544 34.558C55.233 34.558 54.72 34.3965 54.4136 34.0716C54.1081 33.7485 53.9539 33.2144 53.9539 32.4691C53.9539 31.6858 54.1023 31.138 54.4 30.8247C54.6987 30.5105 55.201 30.3538 55.9059 30.3548C56.544 30.3548 57.0056 30.4696 57.2907 30.6992C57.5767 30.9289 57.7212 31.2782 57.727 31.7481C57.727 32.1208 57.6349 32.4 57.4507 32.5868C57.2664 32.7726 56.9697 32.866 56.5605 32.8651ZM55.1525 32.1451H56.2424C56.383 32.1451 56.4771 32.11 56.5265 32.04C56.5822 31.9476 56.6083 31.8403 56.6012 31.7325C56.6012 31.5438 56.5537 31.4124 56.4606 31.3395C56.3675 31.2665 56.1959 31.2295 55.9467 31.2305C55.6519 31.2305 55.4502 31.2908 55.3406 31.4124C55.2301 31.534 55.168 31.7783 55.1535 32.1451H55.1525ZM62.3496 28.7912V33.157C62.3496 33.4275 62.495 33.5617 62.785 33.5617H63.0972L63.2291 34.3965C63.0313 34.5036 62.7248 34.558 62.3108 34.558C61.9675 34.558 61.6979 34.4627 61.5011 34.271C61.3042 34.0803 61.2053 33.8089 61.2053 33.4576V28.7903H62.3496V28.7912ZM68.2773 30.3548C68.993 30.3548 69.5001 30.5153 69.7988 30.8364C70.0965 31.1575 70.2458 31.7024 70.2458 32.4691C70.2458 33.2358 70.0965 33.7768 69.7988 34.093C69.5001 34.4092 68.9939 34.5668 68.2773 34.5668C67.5568 34.5668 67.0468 34.4082 66.7491 34.093C66.4504 33.7768 66.3021 33.2358 66.3011 32.4681C66.3011 31.6965 66.4504 31.1507 66.7491 30.8325C67.0468 30.5144 67.5568 30.3548 68.2773 30.3548ZM68.2773 31.2538C67.9719 31.2538 67.7663 31.3346 67.6635 31.4971C67.5598 31.6586 67.5074 31.9836 67.5064 32.4691C67.5064 32.9439 67.5588 33.262 67.6635 33.4245C67.7673 33.586 67.9719 33.6678 68.2773 33.6678C68.5731 33.6678 68.7738 33.586 68.8805 33.4245C68.9871 33.262 69.0405 32.9439 69.0395 32.4691C69.0395 31.9884 68.9881 31.6654 68.8844 31.501C68.7796 31.3356 68.5779 31.2538 68.2773 31.2538ZM74.688 30.4677L74.7743 31.0515C74.9343 30.851 75.1564 30.6866 75.4385 30.5552C75.7081 30.4287 76.001 30.3626 76.2977 30.3606C77.1801 30.3606 77.6204 31.0738 77.6204 32.5002C77.6204 33.2669 77.5021 33.803 77.2664 34.1076C77.0308 34.4131 76.6613 34.5649 76.1571 34.5649C75.6393 34.5649 75.2107 34.4355 74.8742 34.1766C74.9004 34.4617 74.9081 34.7487 74.8975 35.0358V36H73.7532V30.4677H74.688ZM74.8984 31.6829V33.5131C75.3028 33.6211 75.5937 33.6756 75.7702 33.6756C76.0242 33.6756 76.1988 33.5997 76.2948 33.4489C76.3918 33.298 76.4393 32.9818 76.4393 32.5012C76.4393 32.0312 76.3947 31.714 76.3064 31.5496C76.2192 31.3842 76.063 31.3025 75.84 31.3025C75.5859 31.3025 75.2718 31.429 74.8984 31.6829ZM82.0635 30.4677L82.1411 31.0515C82.6288 30.5864 83.1166 30.3548 83.6044 30.3548C84.1232 30.3548 84.4528 30.5708 84.5935 31.0028C85.0444 30.5708 85.5108 30.3548 85.9937 30.3548C86.3408 30.3548 86.6046 30.4492 86.7869 30.6379C86.9692 30.8267 87.0604 31.102 87.0594 31.465V34.4617H85.9151V31.8357C85.9151 31.6635 85.8861 31.5418 85.8288 31.4708C85.7716 31.3998 85.6659 31.3657 85.5098 31.3667C85.3868 31.3665 85.2651 31.3913 85.152 31.4397C85.0376 31.4883 84.8718 31.5827 84.6545 31.7218V34.4607H83.5491V31.8357C83.5491 31.6635 83.5171 31.5418 83.4521 31.4708C83.3871 31.3998 83.2824 31.3657 83.137 31.3667C82.9343 31.3667 82.6521 31.4825 82.2895 31.715V34.4607H81.1452V30.4677H82.0635ZM93.1423 32.8651H91.7576C91.7934 33.157 91.8778 33.3535 92.0097 33.4527C92.1425 33.552 92.3617 33.6026 92.6681 33.6026C93.1462 33.5987 93.6242 33.5685 94.0994 33.5131L94.208 34.2584C93.8094 34.4588 93.2519 34.558 92.5353 34.558C91.8148 34.558 91.3008 34.3965 90.9944 34.0716C90.689 33.7485 90.5358 33.2144 90.5358 32.4691C90.5358 31.6858 90.6851 31.138 90.9828 30.8247C91.2814 30.5105 91.7838 30.3538 92.4887 30.3548C93.1268 30.3548 93.5884 30.4696 93.8735 30.6992C94.1585 30.9289 94.304 31.2782 94.3098 31.7481C94.3098 32.1208 94.2167 32.4 94.0335 32.5868C93.8492 32.7726 93.5525 32.866 93.1423 32.8651ZM91.7343 32.1451H92.8233C92.9629 32.1451 93.0579 32.11 93.1074 32.04C93.1625 31.9474 93.1882 31.8401 93.1811 31.7325C93.1811 31.5438 93.1345 31.4124 93.0415 31.3395C92.9474 31.2665 92.7767 31.2295 92.5275 31.2305C92.2327 31.2305 92.0301 31.2908 91.9205 31.4124C91.8109 31.534 91.7488 31.7783 91.7343 32.1451ZM98.7132 30.4677L98.7985 31.0592C99.3542 30.5903 99.9011 30.3548 100.44 30.3548C100.787 30.3548 101.053 30.4502 101.237 30.6389C101.422 30.8277 101.514 31.103 101.514 31.465V34.4617H100.368V31.8366C100.368 31.6586 100.341 31.535 100.287 31.4679C100.233 31.4007 100.136 31.3667 99.9951 31.3667C99.7518 31.3667 99.3959 31.4893 98.9285 31.7325V34.4617H97.7775V30.4686H98.7132V30.4677ZM106.657 31.2704V33.1579C106.657 33.3078 106.688 33.4138 106.75 33.4732C106.812 33.5325 106.921 33.5627 107.077 33.5617H107.567L107.692 34.3965C107.396 34.5045 107.036 34.559 106.609 34.559C106.262 34.559 105.993 34.4569 105.801 34.2545C105.608 34.0521 105.513 33.7699 105.513 33.408V31.2713H104.836V30.5095L105.513 30.4686V29.3517H106.657V30.4686H107.723V31.2713H106.657V31.2704ZM115.888 29.3867C116.222 28.9742 116.819 28.7669 117.68 28.7669C118.542 28.7669 119.141 28.9742 119.478 29.3867C119.815 29.7992 119.984 30.5601 119.984 31.6664C119.984 32.7736 119.815 33.5345 119.478 33.947C119.141 34.3596 118.542 34.5668 117.68 34.5668C116.819 34.5668 116.222 34.3596 115.888 33.947C115.553 33.5335 115.386 32.7736 115.385 31.6664C115.385 30.5601 115.553 29.8002 115.888 29.3867ZM118.51 30.1602C118.361 29.8956 118.085 29.7632 117.68 29.7632C117.276 29.7632 117 29.8956 116.852 30.1602C116.704 30.4249 116.63 30.9269 116.63 31.6664C116.63 32.4058 116.704 32.9089 116.852 33.1735C117 33.4382 117.276 33.5705 117.68 33.5705C118.085 33.5705 118.361 33.4382 118.51 33.1735C118.657 32.9089 118.731 32.4068 118.731 31.6664C118.731 30.9269 118.657 30.4249 118.51 30.1602ZM127.864 28.873V32.2336C127.864 33.0879 127.708 33.6892 127.394 34.0404C127.081 34.3907 126.54 34.5658 125.772 34.5658C124.963 34.5658 124.394 34.3907 124.064 34.0404C123.735 33.6902 123.57 33.0869 123.569 32.2336V28.873H124.752V32.2336C124.752 32.7473 124.821 33.0976 124.958 33.2873C125.096 33.4761 125.349 33.5695 125.717 33.5695C126.08 33.5695 126.33 33.4761 126.468 33.2873C126.606 33.0976 126.674 32.7473 126.673 32.2336V28.873H127.864ZM124.815 27.2851H125.197C125.362 27.2851 125.445 27.3736 125.445 27.5526V28.0138C125.445 28.1929 125.362 28.2814 125.197 28.2814H124.815C124.649 28.2814 124.566 28.1919 124.566 28.0138V27.5526C124.566 27.3736 124.649 27.2851 124.815 27.2851ZM126.231 27.2851H126.613C126.784 27.2851 126.869 27.3736 126.869 27.5526V28.0138C126.869 28.1929 126.784 28.2814 126.613 28.2814H126.231C126.061 28.2814 125.975 28.1919 125.975 28.0138V27.5526C125.974 27.3736 126.06 27.2851 126.231 27.2851Z" fill="white"/>
</g>
<defs>
<clipPath id="clip0_204_547">
<rect width="128" height="36" fill="white"/>
</clipPath>
</defs>
</svg>
