<svg width="211" height="174" viewBox="0 0 211 174" fill="none" xmlns="http://www.w3.org/2000/svg">
<g filter="url(#filter0_d_204_130)">
<path fill-rule="evenodd" clip-rule="evenodd" d="M183.308 45.6521L190.457 63.3341C191.115 64.9612 190.314 66.8031 188.669 67.4481C188.17 67.6441 187.628 67.7125 187.093 67.6471L168.743 65.4022C166.984 65.187 165.731 63.6045 165.943 61.8675C166.008 61.3398 166.206 60.8371 166.519 60.4056L177.72 44.9684C178.75 43.5479 180.754 43.2253 182.195 44.2478C182.694 44.6017 183.08 45.089 183.308 45.6521Z" fill="url(#paint0_linear_204_130)"/>
</g>
<path opacity="0.596977" fill-rule="evenodd" clip-rule="evenodd" d="M23.9013 13.7891L11.58 27.0225C10.4462 28.2403 8.53383 28.3437 7.30864 27.2535C6.93647 26.9223 6.65693 26.5034 6.49576 26.0353L0.960385 9.95942C0.429796 8.41847 1.28274 6.72749 2.86549 6.18251C3.34627 6.01696 3.85987 5.97184 4.35901 6.05129L22.2156 8.89369C23.8588 9.15525 24.9523 10.6752 24.6581 12.2886C24.5563 12.847 24.2936 13.3677 23.9013 13.7891Z" fill="url(#paint1_linear_204_130)"/>
<path opacity="0.596977" fill-rule="evenodd" clip-rule="evenodd" d="M162.818 158.277L174.787 160.074C175.889 160.24 176.669 161.256 176.531 162.345C176.489 162.676 176.363 162.989 176.166 163.255L169.383 172.394C168.732 173.27 167.476 173.438 166.576 172.771C166.303 172.568 166.084 172.301 165.939 171.996L160.753 161.059C160.276 160.053 160.701 158.874 161.703 158.426C162.05 158.271 162.437 158.219 162.818 158.277Z" fill="url(#paint2_linear_204_130)"/>
<defs>
<filter id="filter0_d_204_130" x="145.92" y="22.6504" width="64.7671" height="64.021" filterUnits="userSpaceOnUse" color-interpolation-filters="sRGB">
<feFlood flood-opacity="0" result="BackgroundImageFix"/>
<feColorMatrix in="SourceAlpha" type="matrix" values="0 0 0 0 0 0 0 0 0 0 0 0 0 0 0 0 0 0 127 0" result="hardAlpha"/>
<feOffset dy="-1"/>
<feGaussianBlur stdDeviation="10"/>
<feColorMatrix type="matrix" values="0 0 0 0 0 0 0 0 0 0 0 0 0 0 0 0 0 0 0.0808424 0"/>
<feBlend mode="normal" in2="BackgroundImageFix" result="effect1_dropShadow_204_130"/>
<feBlend mode="normal" in="SourceGraphic" in2="effect1_dropShadow_204_130" result="shape"/>
</filter>
<linearGradient id="paint0_linear_204_130" x1="185.778" y1="15.8465" x2="152.701" y2="49.5152" gradientUnits="userSpaceOnUse">
<stop stop-color="#60ABEE"/>
<stop offset="1" stop-color="#60ABEE" stop-opacity="0.108299"/>
</linearGradient>
<linearGradient id="paint1_linear_204_130" x1="8.87381" y1="-5.32818" x2="2.27746" y2="12.742" gradientUnits="userSpaceOnUse">
<stop stop-color="#B949BE" stop-opacity="0.539289"/>
<stop offset="1" stop-color="#B949BE"/>
</linearGradient>
<linearGradient id="paint2_linear_204_130" x1="157.947" y1="173.807" x2="170.421" y2="170.614" gradientUnits="userSpaceOnUse">
<stop stop-color="#B949BE" stop-opacity="0.539289"/>
<stop offset="1" stop-color="#B949BE"/>
</linearGradient>
</defs>
</svg>
