<svg width="272" height="162" viewBox="0 0 272 162" fill="none" xmlns="http://www.w3.org/2000/svg">
<g filter="url(#filter0_d_2027_3565)">
<path fill-rule="evenodd" clip-rule="evenodd" d="M243.749 120.49L250.899 138.172C251.556 139.799 250.756 141.641 249.111 142.286C248.611 142.482 248.07 142.55 247.535 142.485L229.185 140.24C227.426 140.025 226.173 138.442 226.385 136.705C226.45 136.178 226.648 135.675 226.961 135.243L238.162 119.806C239.192 118.386 241.196 118.063 242.637 119.086C243.136 119.44 243.522 119.927 243.749 120.49Z" fill="url(#paint0_linear_2027_3565)"/>
</g>
<path opacity="0.596977" fill-rule="evenodd" clip-rule="evenodd" d="M23.9022 128.789L11.581 142.023C10.4472 143.24 8.53481 143.344 7.30961 142.253C6.93744 141.922 6.65791 141.503 6.49673 141.035L0.961362 124.959C0.430773 123.418 1.28372 121.727 2.86647 121.183C3.34725 121.017 3.86085 120.972 4.35999 121.051L22.2166 123.894C23.8598 124.155 24.9533 125.675 24.6591 127.289C24.5572 127.847 24.2946 128.368 23.9022 128.789Z" fill="url(#paint1_linear_2027_3565)"/>
<path opacity="0.596977" fill-rule="evenodd" clip-rule="evenodd" d="M230.449 5.39328L242.418 7.19082C243.52 7.35623 244.3 8.37315 244.162 9.46218C244.12 9.79298 243.994 10.1058 243.797 10.3719L237.013 19.5105C236.363 20.3865 235.107 20.5552 234.207 19.8873C233.934 19.6845 233.714 19.4179 233.569 19.1122L228.384 8.17612C227.906 7.16977 228.332 5.99088 229.334 5.54298C229.681 5.38799 230.068 5.33604 230.449 5.39328Z" fill="url(#paint2_linear_2027_3565)"/>
<defs>
<filter id="filter0_d_2027_3565" x="206.362" y="97.4884" width="64.7671" height="64.0206" filterUnits="userSpaceOnUse" color-interpolation-filters="sRGB">
<feFlood flood-opacity="0" result="BackgroundImageFix"/>
<feColorMatrix in="SourceAlpha" type="matrix" values="0 0 0 0 0 0 0 0 0 0 0 0 0 0 0 0 0 0 127 0" result="hardAlpha"/>
<feOffset dy="-1"/>
<feGaussianBlur stdDeviation="10"/>
<feColorMatrix type="matrix" values="0 0 0 0 0 0 0 0 0 0 0 0 0 0 0 0 0 0 0.0808424 0"/>
<feBlend mode="normal" in2="BackgroundImageFix" result="effect1_dropShadow_2027_3565"/>
<feBlend mode="normal" in="SourceGraphic" in2="effect1_dropShadow_2027_3565" result="shape"/>
</filter>
<linearGradient id="paint0_linear_2027_3565" x1="246.22" y1="90.6844" x2="213.143" y2="124.353" gradientUnits="userSpaceOnUse">
<stop stop-color="#60ABEE"/>
<stop offset="1" stop-color="#60ABEE" stop-opacity="0.108299"/>
</linearGradient>
<linearGradient id="paint1_linear_2027_3565" x1="8.87479" y1="109.672" x2="2.27843" y2="127.742" gradientUnits="userSpaceOnUse">
<stop stop-color="#B949BE" stop-opacity="0.539289"/>
<stop offset="1" stop-color="#B949BE"/>
</linearGradient>
<linearGradient id="paint2_linear_2027_3565" x1="225.577" y1="20.9241" x2="238.052" y2="17.7305" gradientUnits="userSpaceOnUse">
<stop stop-color="#B949BE" stop-opacity="0.539289"/>
<stop offset="1" stop-color="#B949BE"/>
</linearGradient>
</defs>
</svg>
