<svg width="160" height="45" viewBox="0 0 160 45" fill="none" xmlns="http://www.w3.org/2000/svg">
<g clip-path="url(#clip0_2027_3663)">
<path d="M6.73684 1.1356V21.1678C6.70125 23.4159 7.6611 25.5791 9.39228 27.1524C11.1043 28.7415 13.4267 29.6343 15.8484 29.6343C18.2701 29.6343 20.5925 28.7415 22.3046 27.1524C25.8224 23.8261 25.8224 18.4991 22.3046 15.1727C19.5588 12.5828 15.3292 11.9249 11.8232 13.5424L11.7614 13.6414V16.303L11.9523 16.3863C14.4699 14.55 18.0758 14.7748 20.306 16.9072C21.5249 18.0393 22.1939 19.5835 22.1586 21.1834C22.1997 23.5812 20.6659 25.7615 18.2836 26.6919C15.9014 27.6222 13.1487 27.116 11.3291 25.4128C10.1157 24.2964 9.44651 22.7686 9.47649 21.1834V15.928V15.8811V2.60442L40.4996 19.2198C42.2393 20.1541 42.8347 22.2192 41.8302 23.8346C41.5141 24.3493 41.0545 24.7757 40.4996 25.069L5.46246 43.8199C4.3393 44.424 2.95427 44.427 1.82808 43.8278C0.701879 43.2286 0.00521482 42.118 0 40.9135V3.37529C0.00267981 2.16938 0.697575 1.05612 1.8236 0.453783C2.94963 -0.148558 4.33624 -0.14875 5.46246 0.453277L6.73684 1.1356ZM4.98526 41.0073L5.61404 41.9813L7.16912 41.1479L6.56281 40.1739L4.98526 41.0073ZM7.09053 39.8822L7.69684 40.8562L9.27439 40.0124L8.66807 39.0645L7.09053 39.8822ZM6.17544 38.4186L6.78175 39.3926L8.36491 38.5436L7.75298 37.5696L6.17544 38.4186ZM9.18456 38.7572L9.79088 39.7312L11.3684 38.8874L10.7621 37.9082L9.18456 38.7572ZM8.2807 37.2935L8.88702 38.2675L10.4646 37.4238L9.85825 36.4602L8.2807 37.2935ZM7.37123 35.8299L7.97754 36.8039L9.54386 35.9393L8.93754 34.9653L7.37123 35.8299ZM10.3804 36.1685L10.9923 37.1425L12.5642 36.2987L11.9579 35.3195L10.3804 36.1685ZM12.4856 35.0382L13.0919 36.0174L14.6695 35.1737L14.0632 34.1944L12.4856 35.0382ZM9.47088 34.7049L10.1053 35.6789L11.6828 34.8351L11.0484 33.8559L9.47088 34.7049ZM14.5965 33.9132L15.1916 34.8976L16.7691 34.0538L16.1628 33.0798L14.5965 33.9132ZM16.6905 32.8142L17.2968 33.7882L18.8688 32.9444L18.2625 31.9704L16.6905 32.8142ZM18.7902 31.6891L19.3965 32.6631L20.974 31.7724L20.3677 30.7984L18.7902 31.6891ZM23.0175 29.413L23.5789 30.387L25.1565 29.5432L24.5502 28.5692L23.0175 29.413ZM27.2225 27.1577L27.8063 28.1264L29.3782 27.2775L28.7719 26.3034L27.2225 27.1577ZM29.2996 26.043L29.906 27.017L31.4835 26.1732L30.8772 25.1888L29.2996 26.043ZM31.3993 24.918L32 25.8816L33.5775 25.0378L32.9768 24.0638L31.3993 24.918ZM30.4898 23.4387L31.0961 24.4127L32.6737 23.5689L32.0674 22.5949L30.4898 23.4387ZM33.5046 23.7773L34.1109 24.7513L35.6884 23.9075L35.0765 22.9179L33.5046 23.7773ZM32.5951 22.3137L33.2014 23.2877L34.7733 22.4439L34.167 21.4699L32.5951 22.3137ZM29.5804 21.9751L30.1867 22.9543L31.7642 22.1105L31.1579 21.1365L29.5804 21.9751ZM26.2849 25.694L26.8912 26.668L28.4688 25.8243L27.8625 24.845L26.2849 25.694ZM13.6758 32.4652L14.2821 33.4444L15.8596 32.6006L15.2533 31.6214L13.6758 32.4652ZM6.46175 34.3767L7.06807 35.3507L8.64561 34.507L8.0393 33.533L6.46175 34.3767ZM5.55228 32.9027L6.17544 33.8819L7.75298 33.0329L7.12982 32.0589L5.55228 32.9027ZM11.2954 37.6269L11.9018 38.6061L13.4737 37.7571L12.8674 36.7831L11.2954 37.6269ZM13.3951 36.5018L14.0014 37.5019L15.5789 36.6581L14.9726 35.6841L13.3951 36.5018ZM15.4947 35.3768L16.1011 36.3508L17.6786 35.507L17.0723 34.533L15.4947 35.3768ZM17.6 34.2517L18.2063 35.2257L19.7839 34.3767L19.1775 33.4027L17.6 34.2517ZM19.6996 33.1267L20.306 34.1007L21.8947 33.2569L21.2772 32.2933L19.6996 33.1267ZM21.7993 32.0016L22.4112 32.9756L23.9832 32.1318L23.3768 31.1578L21.7993 32.0016ZM23.9046 30.8714L24.5109 31.8506L26.0884 31.0068L25.4821 30.0276L23.9046 30.8714ZM26.0042 29.7463L26.6105 30.7307L28.1881 29.8817L27.5818 28.9077L26.0042 29.7463ZM28.1095 28.6473L28.7158 29.6213L30.3158 28.7515L29.7039 27.7775L28.1095 28.6473ZM30.2091 27.5223L30.8154 28.4963L32.393 27.6056L31.7867 26.6316L30.2091 27.5223ZM32.3088 26.3972L32.9151 27.3712L34.4926 26.5274L33.8863 25.5222L32.3088 26.3972ZM34.414 25.2721L35.0204 26.2462L36.5979 25.4024L35.9916 24.4284L34.414 25.2721ZM36.4912 24.1211L37.0975 25.0951L38.6751 24.2513L38.0688 23.2721L36.4912 24.1211ZM15.8091 24.5586C17.2838 24.5607 18.6144 23.7379 19.1798 22.4742C19.7452 21.2106 19.4338 19.7554 18.3911 18.7879C17.3483 17.8205 15.7798 17.5316 14.4178 18.0562C13.0558 18.5807 12.169 19.8152 12.1712 21.1834C12.1727 22.0818 12.5595 22.9426 13.2463 23.5759C13.9331 24.2091 14.8633 24.5627 15.8316 24.5586H15.8091Z" fill="url(#paint0_linear_2027_3663)"/>
<path d="M57.918 15.1H63.218C64.6446 15.1 65.7513 15.4467 66.538 16.14C67.3246 16.8333 67.718 17.7133 67.718 18.78C67.718 20.34 66.818 21.3667 65.018 21.86C65.9246 22.0067 66.6513 22.4133 67.198 23.08C67.758 23.7333 68.038 24.4867 68.038 25.34C68.038 26.4067 67.6246 27.2867 66.798 27.98C65.9713 28.66 64.8646 29 63.478 29H57.918V15.1ZM60.198 16.88V21H63.018C63.7646 21 64.3446 20.82 64.758 20.46C65.1846 20.1 65.398 19.6 65.398 18.96C65.398 18.3067 65.1846 17.8 64.758 17.44C64.3446 17.0667 63.7646 16.88 63.018 16.88H60.198ZM60.198 27.22H63.278C64.0513 27.22 64.658 27.0267 65.098 26.64C65.538 26.2533 65.758 25.72 65.758 25.04C65.758 24.3467 65.5246 23.8 65.058 23.4C64.5913 22.9867 63.9713 22.78 63.198 22.78H60.198V27.22ZM78.1556 29.18C76.5556 29.18 75.2556 28.66 74.2556 27.62C73.2556 26.58 72.7556 25.2 72.7556 23.48C72.7556 21.76 73.2623 20.3867 74.2756 19.36C75.289 18.32 76.5956 17.8 78.1956 17.8C79.809 17.8 81.1156 18.3 82.1156 19.3C83.1156 20.2867 83.6156 21.58 83.6156 23.18C83.6156 23.5667 83.589 23.9267 83.5356 24.26H75.0956C75.149 25.18 75.4556 25.9133 76.0156 26.46C76.589 26.9933 77.3023 27.26 78.1556 27.26C79.3956 27.26 80.269 26.7467 80.7756 25.72H83.2356C82.9023 26.7333 82.2956 27.5667 81.4156 28.22C80.5356 28.86 79.449 29.18 78.1556 29.18ZM81.2356 22.7C81.2223 21.7933 80.9223 21.0733 80.3356 20.54C79.749 19.9933 79.0356 19.72 78.1956 19.72C77.3556 19.72 76.649 19.9933 76.0756 20.54C75.5156 21.0733 75.1956 21.7933 75.1156 22.7H81.2356ZM96.1194 26.2C96.786 25.52 97.1194 24.6133 97.1194 23.48C97.1194 22.3467 96.786 21.4467 96.1194 20.78C95.466 20.1133 94.686 19.78 93.7794 19.78C92.8727 19.78 92.086 20.1067 91.4194 20.76C90.766 21.4133 90.4394 22.3067 90.4394 23.44C90.4394 24.5733 90.766 25.4867 91.4194 26.18C92.086 26.86 92.8727 27.2 93.7794 27.2C94.686 27.2 95.466 26.8667 96.1194 26.2ZM93.2994 29.18C91.8327 29.18 90.5994 28.6467 89.5994 27.58C88.5994 26.5 88.0994 25.1267 88.0994 23.46C88.0994 21.78 88.5927 20.42 89.5794 19.38C90.5794 18.3267 91.8194 17.8 93.2994 17.8C94.166 17.8 94.926 18 95.5794 18.4C96.246 18.7867 96.7594 19.3 97.1194 19.94V17.98H99.4194V29H97.1194V26.94C96.746 27.62 96.2327 28.1667 95.5794 28.58C94.926 28.98 94.166 29.18 93.2994 29.18ZM110.754 19.84H108.074V25.94C108.074 26.3533 108.167 26.6533 108.354 26.84C108.554 27.0133 108.887 27.1 109.354 27.1H110.754V29H108.954C106.834 29 105.774 27.98 105.774 25.94V19.84H104.474V17.98H105.774V15.24H108.074V17.98H110.754V19.84ZM115.855 15.1H121.155C122.582 15.1 123.689 15.4467 124.475 16.14C125.262 16.8333 125.655 17.7133 125.655 18.78C125.655 20.34 124.755 21.3667 122.955 21.86C123.862 22.0067 124.589 22.4133 125.135 23.08C125.695 23.7333 125.975 24.4867 125.975 25.34C125.975 26.4067 125.562 27.2867 124.735 27.98C123.909 28.66 122.802 29 121.415 29H115.855V15.1ZM118.135 16.88V21H120.955C121.702 21 122.282 20.82 122.695 20.46C123.122 20.1 123.335 19.6 123.335 18.96C123.335 18.3067 123.122 17.8 122.695 17.44C122.282 17.0667 121.702 16.88 120.955 16.88H118.135ZM118.135 27.22H121.215C121.989 27.22 122.595 27.0267 123.035 26.64C123.475 26.2533 123.695 25.72 123.695 25.04C123.695 24.3467 123.462 23.8 122.995 23.4C122.529 22.9867 121.909 22.78 121.135 22.78H118.135V27.22ZM139.153 17.98H141.433V29H139.153V27.26C138.433 28.5267 137.26 29.16 135.633 29.16C134.393 29.16 133.366 28.7533 132.553 27.94C131.753 27.1133 131.353 25.96 131.353 24.48V17.98H133.613V24.14C133.613 25.1267 133.86 25.8867 134.353 26.42C134.846 26.94 135.52 27.2 136.373 27.2C137.226 27.2 137.9 26.94 138.393 26.42C138.9 25.8867 139.153 25.1267 139.153 24.14V17.98ZM150.481 28.82L146.141 17.98H148.681L151.781 26.38L155.001 17.98H157.361L150.601 34.18H148.241L150.481 28.82Z" fill="white"/>
</g>
<defs>
<linearGradient id="paint0_linear_2027_3663" x1="21.1593" y1="0.000131221" x2="21.1593" y2="44.2939" gradientUnits="userSpaceOnUse">
<stop stop-color="#47B5F5"/>
<stop offset="0.27" stop-color="#578DF7"/>
<stop offset="1" stop-color="#8021FC"/>
</linearGradient>
<clipPath id="clip0_2027_3663">
<rect width="160" height="44.5333" fill="white"/>
</clipPath>
</defs>
</svg>
